<?xml version="1.0" encoding="UTF-8"?>
<!DOCTYPE svg PUBLIC "-//W3C//DTD SVG 1.1//EN" "http://www.w3.org/Graphics/SVG/1.1/DTD/svg11.dtd">
<svg xmlns="http://www.w3.org/2000/svg" version="1.1" width="500px" height="500px" style="shape-rendering:geometricPrecision; text-rendering:geometricPrecision; image-rendering:optimizeQuality; fill-rule:evenodd; clip-rule:evenodd" xmlns:xlink="http://www.w3.org/1999/xlink">
<g><path style="opacity:0.004" fill="#fefffe" d="M 141.5,2.5 C 142.833,3.16667 142.833,3.16667 141.5,2.5 Z"/></g>
<g><path style="opacity:0.004" fill="#fefffe" d="M 282.5,11.5 C 283.833,12.1667 283.833,12.1667 282.5,11.5 Z"/></g>
<g><path style="opacity:0.004" fill="#fefffe" d="M 360.5,14.5 C 361.833,15.1667 361.833,15.1667 360.5,14.5 Z"/></g>
<g><path style="opacity:0.004" fill="#fefffe" d="M 333.5,16.5 C 334.833,17.1667 334.833,17.1667 333.5,16.5 Z"/></g>
<g><path style="opacity:0.004" fill="#fefffe" d="M 65.5,24.5 C 66.8333,25.1667 66.8333,25.1667 65.5,24.5 Z"/></g>
<g><path style="opacity:0.004" fill="#fefffe" d="M 39.5,31.5 C 40.8333,32.1667 40.8333,32.1667 39.5,31.5 Z"/></g>
<g><path style="opacity:0.004" fill="#fefffe" d="M 449.5,40.5 C 450.833,41.1667 450.833,41.1667 449.5,40.5 Z"/></g>
<g><path style="opacity:1" fill="#8fa242" d="M 359.5,65.5 C 348.337,62.704 337.004,61.8707 325.5,63C 320.438,65.4027 315.104,66.5694 309.5,66.5C 316.998,62.2508 325.165,60.2508 334,60.5C 342.954,60.4578 351.454,62.1245 359.5,65.5 Z"/></g>
<g><path style="opacity:0.004" fill="#fefffe" d="M 112.5,71.5 C 113.833,72.1667 113.833,72.1667 112.5,71.5 Z"/></g>
<g><path style="opacity:0.004" fill="#fefffe" d="M 116.5,73.5 C 117.833,74.1667 117.833,74.1667 116.5,73.5 Z"/></g>
<g><path style="opacity:1" fill="#3f7a12" d="M 343.5,90.5 C 343.5,90.8333 343.5,91.1667 343.5,91.5C 343.5,91.8333 343.5,92.1667 343.5,92.5C 335.735,86.4686 327.568,86.1352 319,91.5C 317.559,90.7402 316.059,90.0736 314.5,89.5C 315.019,91.9521 315.019,94.9521 314.5,98.5C 312.801,98.3398 311.134,98.5065 309.5,99C 309.833,99.3333 310.167,99.6667 310.5,100C 307.856,107.981 308.19,115.814 311.5,123.5C 308.406,122.787 305.406,121.787 302.5,120.5C 301.057,117.228 298.557,115.228 295,114.5C 294.08,111.899 293.413,109.232 293,106.5C 291.855,105.316 290.688,105.316 289.5,106.5C 288.526,100.528 288.359,94.5283 289,88.5C 289.754,85.3156 291.254,82.6489 293.5,80.5C 293.369,81.3764 293.702,82.0431 294.5,82.5C 313.623,68.3414 329.956,71.0081 343.5,90.5 Z"/></g>
<g><path style="opacity:1" fill="#37702b" d="M 222.5,150.5 C 221.5,152.167 220.167,153.5 218.5,154.5C 217.731,143.799 219.064,133.465 222.5,123.5C 220.687,116.246 219.187,108.912 218,101.5C 217.138,103.087 216.471,104.754 216,106.5C 215.25,105.874 214.416,105.374 213.5,105C 213.935,102.602 213.269,100.269 211.5,98C 211.833,97.6667 212.167,97.3333 212.5,97C 209.803,94.1901 210.303,93.3567 214,94.5C 214.821,91.4459 214.655,88.4459 213.5,85.5C 211.323,84.3237 209.989,82.4904 209.5,80C 206.842,79.9271 204.176,80.2604 201.5,81C 202.214,82.3431 201.88,83.6764 200.5,85C 201.601,87.2924 200.768,88.7924 198,89.5C 197.667,88.8333 197.333,88.1667 197,87.5C 196.167,89 195,90.1667 193.5,91C 194.308,91.3076 194.975,91.8076 195.5,92.5C 191.898,94.322 191.898,95.322 195.5,95.5C 190.983,97.8256 186.816,100.826 183,104.5C 180.519,103.851 180.186,102.851 182,101.5C 182.667,99.8333 182.667,98.1667 182,96.5C 180.817,95.269 179.651,95.269 178.5,96.5C 173.538,103.559 169.038,110.892 165,118.5C 165.046,116.687 164.88,115.021 164.5,113.5C 165.664,108.423 166.831,103.09 168,97.5C 171.246,92.2167 173.746,86.5501 175.5,80.5C 176.382,79.2402 177.382,78.0736 178.5,77C 176.919,76.2935 175.419,75.4601 174,74.5C 173.517,75.448 173.351,76.448 173.5,77.5C 172.127,77.3433 170.793,77.51 169.5,78C 167.35,81.1467 165.35,84.3133 163.5,87.5C 164.614,83.2725 166.28,79.2725 168.5,75.5C 167.926,73.9411 167.26,72.4411 166.5,71C 164.276,70.9605 162.276,70.7938 160.5,70.5C 165.319,68.8244 170.319,67.3244 175.5,66C 179.769,62.0313 184.769,59.3646 190.5,58C 191.252,57.3292 191.586,56.4959 191.5,55.5C 195.734,53.7244 200.067,51.8911 204.5,50C 207.167,49.3333 209.833,49.3333 212.5,50C 211.146,58.1405 209.813,66.3072 208.5,74.5C 212.25,80.3306 215.75,86.3306 219,92.5C 220.787,98.366 221.787,104.366 222,110.5C 225.356,116.721 226.356,123.388 225,130.5C 222.539,134.989 221.039,139.823 220.5,145C 220.954,147.03 221.62,148.863 222.5,150.5 Z"/></g>
<g><path style="opacity:1" fill="#407b25" d="M 197.5,55.5 C 201.079,55.3163 204.413,55.983 207.5,57.5C 209.593,64.7703 208.426,71.4369 204,77.5C 195.247,82.4603 186.413,87.2937 177.5,92C 176.378,94.1238 174.878,95.9571 173,97.5C 172.333,96.1667 172.333,94.8333 173,93.5C 175.922,87.8795 178.922,82.2129 182,76.5C 183.419,75.5399 184.919,74.7065 186.5,74C 189.456,70.8414 192.456,67.6748 195.5,64.5C 197.667,63.2081 200,62.3747 202.5,62C 198.499,61.2126 196.832,59.0459 197.5,55.5 Z"/></g>
<g><path style="opacity:1" fill="#b0bc12" d="M 368.5,74.5 C 372.812,78.1456 376.812,82.1456 380.5,86.5C 381.308,90.2617 382.642,93.7617 384.5,97C 383.944,97.3826 383.611,97.8826 383.5,98.5C 382.63,101.969 380.963,104.969 378.5,107.5C 375.108,108.912 371.608,109.912 368,110.5C 367.042,105.877 366.375,101.21 366,96.5C 364.203,93.332 362.703,89.9987 361.5,86.5C 357.029,81.4409 352.362,76.6076 347.5,72C 349.076,71.5604 350.41,70.727 351.5,69.5C 353.5,70.8333 355.5,70.8333 357.5,69.5C 361.394,70.7428 365.061,72.4094 368.5,74.5 Z"/></g>
<g><path style="opacity:1" fill="#9fb007" d="M 368.5,74.5 C 365.061,72.4094 361.394,70.7428 357.5,69.5C 355.5,70.8333 353.5,70.8333 351.5,69.5C 350.41,70.727 349.076,71.5604 347.5,72C 352.362,76.6076 357.029,81.4409 361.5,86.5C 362.703,89.9987 364.203,93.332 366,96.5C 366.375,101.21 367.042,105.877 368,110.5C 371.608,109.912 375.108,108.912 378.5,107.5C 380.963,104.969 382.63,101.969 383.5,98.5C 384.222,98.9175 384.722,99.5842 385,100.5C 386.401,108.498 385.234,115.998 381.5,123C 378.776,123.27 376.109,123.77 373.5,124.5C 371.939,123.653 370.439,123.986 369,125.5C 368.586,125.043 368.086,124.709 367.5,124.5C 366.508,120.217 366.174,115.884 366.5,111.5C 363.428,111.817 360.428,111.484 357.5,110.5C 355.929,108.585 353.929,107.585 351.5,107.5C 349.782,102.29 347.782,97.2899 345.5,92.5C 344.817,92.1373 344.15,91.8039 343.5,91.5C 343.5,91.1667 343.5,90.8333 343.5,90.5C 342.697,87.3325 341.364,84.3325 339.5,81.5C 340.865,80.059 342.365,78.7256 344,77.5C 344.333,77.8333 344.667,78.1667 345,78.5C 344.697,76.1806 344.03,73.8473 343,71.5C 339.218,69.7598 335.385,68.0932 331.5,66.5C 339.888,66.0677 348.221,66.0677 356.5,66.5C 359.942,68.3915 363.609,69.3915 367.5,69.5C 367.629,71.2161 367.962,72.8828 368.5,74.5 Z"/></g>
<g><path style="opacity:0.004" fill="#fefffe" d="M 38.5,92.5 C 39.8333,93.1667 39.8333,93.1667 38.5,92.5 Z"/></g>
<g><path style="opacity:0.004" fill="#fefffe" d="M 76.5,97.5 C 77.8333,98.1667 77.8333,98.1667 76.5,97.5 Z"/></g>
<g><path style="opacity:1" fill="#8da611" d="M 359.5,65.5 C 371.183,68.5168 379.516,75.5168 384.5,86.5C 386.606,93.4766 388.606,100.477 390.5,107.5C 390.665,111.182 390.499,114.848 390,118.5C 389.667,118.167 389.333,117.833 389,117.5C 384.656,124.522 381.989,132.189 381,140.5C 380.237,143.47 378.737,145.97 376.5,148C 371.78,148.228 367.113,148.394 362.5,148.5C 362.49,143.289 362.323,137.956 362,132.5C 361.581,133.672 360.915,134.672 360,135.5C 357.699,134.133 355.199,133.466 352.5,133.5C 352.662,131.473 352.495,129.473 352,127.5C 351.809,129.708 351.309,131.708 350.5,133.5C 350.666,125.493 350.5,117.493 350,109.5C 349.292,108.619 348.458,107.953 347.5,107.5C 346.937,102.912 345.604,98.5792 343.5,94.5C 343.5,93.8333 343.5,93.1667 343.5,92.5C 343.5,92.1667 343.5,91.8333 343.5,91.5C 344.15,91.8039 344.817,92.1373 345.5,92.5C 347.782,97.2899 349.782,102.29 351.5,107.5C 353.929,107.585 355.929,108.585 357.5,110.5C 360.428,111.484 363.428,111.817 366.5,111.5C 366.174,115.884 366.508,120.217 367.5,124.5C 368.086,124.709 368.586,125.043 369,125.5C 370.439,123.986 371.939,123.653 373.5,124.5C 376.109,123.77 378.776,123.27 381.5,123C 385.234,115.998 386.401,108.498 385,100.5C 384.722,99.5842 384.222,98.9175 383.5,98.5C 383.611,97.8826 383.944,97.3826 384.5,97C 382.642,93.7617 381.308,90.2617 380.5,86.5C 376.812,82.1456 372.812,78.1456 368.5,74.5C 367.962,72.8828 367.629,71.2161 367.5,69.5C 363.609,69.3915 359.942,68.3915 356.5,66.5C 348.221,66.0677 339.888,66.0677 331.5,66.5C 335.385,68.0932 339.218,69.7598 343,71.5C 344.03,73.8473 344.697,76.1806 345,78.5C 344.667,78.1667 344.333,77.8333 344,77.5C 342.365,78.7256 340.865,80.059 339.5,81.5C 341.364,84.3325 342.697,87.3325 343.5,90.5C 329.956,71.0081 313.623,68.3414 294.5,82.5C 293.702,82.0431 293.369,81.3764 293.5,80.5C 297.274,74.0598 302.607,69.3932 309.5,66.5C 315.104,66.5694 320.438,65.4027 325.5,63C 337.004,61.8707 348.337,62.704 359.5,65.5 Z"/></g>
<g><path style="opacity:0.004" fill="#fefffe" d="M 408.5,101.5 C 409.833,102.167 409.833,102.167 408.5,101.5 Z"/></g>
<g><path style="opacity:0.004" fill="#fefffe" d="M 414.5,102.5 C 415.833,103.167 415.833,103.167 414.5,102.5 Z"/></g>
<g><path style="opacity:0.004" fill="#fefffe" d="M 253.5,105.5 C 254.833,106.167 254.833,106.167 253.5,105.5 Z"/></g>
<g><path style="opacity:0.004" fill="#fefffe" d="M 436.5,105.5 C 437.833,106.167 437.833,106.167 436.5,105.5 Z"/></g>
<g><path style="opacity:0.004" fill="#fefffe" d="M 7.5,110.5 C 8.83333,111.167 8.83333,111.167 7.5,110.5 Z"/></g>
<g><path style="opacity:1" fill="#367228" d="M 267.5,116.5 C 255.362,119.118 246.529,126.118 241,137.5C 240.818,140.226 240.318,142.893 239.5,145.5C 238.914,145.291 238.414,144.957 238,144.5C 237.501,139.511 237.334,134.511 237.5,129.5C 237.263,128.209 237.596,127.209 238.5,126.5C 238.369,127.239 238.536,127.906 239,128.5C 240.829,126.844 242.163,124.844 243,122.5C 249.688,116.74 257.188,112.407 265.5,109.5C 269.673,109.309 273.84,108.976 278,108.5C 281.383,108.454 284.216,109.621 286.5,112C 279.975,113.26 273.641,114.76 267.5,116.5 Z"/></g>
<g><path style="opacity:1" fill="#2e692b" d="M 302.5,120.5 C 304.249,122.516 306.249,124.182 308.5,125.5C 309.141,130.845 308.641,136.179 307,141.5C 306.617,142.056 306.117,142.389 305.5,142.5C 303.883,139.49 303.05,136.157 303,132.5C 298.14,126.8 292.307,122.467 285.5,119.5C 283.852,118.073 281.852,117.24 279.5,117C 275.514,116.501 271.514,116.334 267.5,116.5C 273.641,114.76 279.975,113.26 286.5,112C 284.216,109.621 281.383,108.454 278,108.5C 273.84,108.976 269.673,109.309 265.5,109.5C 272.576,107.585 279.909,106.585 287.5,106.5C 288.167,106.5 288.833,106.5 289.5,106.5C 290.688,105.316 291.855,105.316 293,106.5C 293.413,109.232 294.08,111.899 295,114.5C 298.557,115.228 301.057,117.228 302.5,120.5 Z"/></g>
<g><path style="opacity:0.004" fill="#fefffe" d="M 494.5,112.5 C 495.833,113.167 495.833,113.167 494.5,112.5 Z"/></g>
<g><path style="opacity:0.439" fill="#9dac58" d="M 384.5,86.5 C 386.226,88.9422 387.726,91.6089 389,94.5C 394.191,108.893 394.691,123.56 390.5,138.5C 391.483,128.003 391.483,117.669 390.5,107.5C 388.606,100.477 386.606,93.4766 384.5,86.5 Z"/></g>
<g><path style="opacity:0.004" fill="#fefffe" d="M 16.5,118.5 C 17.8333,119.167 17.8333,119.167 16.5,118.5 Z"/></g>
<g><path style="opacity:0.992" fill="#527844" d="M 287.5,106.5 C 279.909,106.585 272.576,107.585 265.5,109.5C 257.188,112.407 249.688,116.74 243,122.5C 242.163,124.844 240.829,126.844 239,128.5C 238.536,127.906 238.369,127.239 238.5,126.5C 240.158,122.328 242.825,118.828 246.5,116C 259.137,107.9 272.803,104.734 287.5,106.5 Z"/></g>
<g><path style="opacity:1" fill="#2a692a" d="M 195.5,95.5 C 196.117,95.6107 196.617,95.944 197,96.5C 199.621,95.0085 202.455,94.3418 205.5,94.5C 206.761,98.3735 207.428,102.374 207.5,106.5C 204.478,106.804 201.478,107.304 198.5,108C 197.014,112.495 194.681,116.328 191.5,119.5C 192.358,122.923 194.358,125.257 197.5,126.5C 199.688,126.693 201.355,125.859 202.5,124C 201.72,122.927 201.887,121.76 203,120.5C 204.302,121.085 205.469,121.751 206.5,122.5C 204.821,124 203.488,125.833 202.5,128C 193,129.833 189.167,126 191,116.5C 192.289,112.393 193.789,108.393 195.5,104.5C 195.392,103.558 195.059,102.725 194.5,102C 189.764,100.618 186.264,102.118 184,106.5C 183.158,109.689 181.825,112.689 180,115.5C 178.197,130.359 184.697,137.526 199.5,137C 202.173,135.999 204.507,134.499 206.5,132.5C 207.48,129.914 207.813,127.247 207.5,124.5C 208.117,124.611 208.617,124.944 209,125.5C 209.752,128.894 209.585,132.227 208.5,135.5C 206.082,136.415 204.082,137.915 202.5,140C 199.5,140.333 196.5,140.667 193.5,141C 200.446,144.904 199.779,147.238 191.5,148C 188.518,148.498 185.518,148.665 182.5,148.5C 182.5,149.833 182.5,151.167 182.5,152.5C 179.885,151.55 177.885,149.883 176.5,147.5C 174.852,141.647 171.519,137.147 166.5,134C 165.528,131.889 164.695,129.722 164,127.5C 163.667,120.167 163.333,112.833 163,105.5C 161.921,103.606 160.587,103.273 159,104.5C 158.038,108.334 156.704,112.001 155,115.5C 154.591,121.51 154.758,127.51 155.5,133.5C 152.126,122.142 153.292,111.142 159,100.5C 158.911,95.4909 160.411,91.1575 163.5,87.5C 165.35,84.3133 167.35,81.1467 169.5,78C 170.793,77.51 172.127,77.3433 173.5,77.5C 173.351,76.448 173.517,75.448 174,74.5C 175.419,75.4601 176.919,76.2935 178.5,77C 177.382,78.0736 176.382,79.2402 175.5,80.5C 173.746,86.5501 171.246,92.2167 168,97.5C 166.831,103.09 165.664,108.423 164.5,113.5C 164.88,115.021 165.046,116.687 165,118.5C 169.038,110.892 173.538,103.559 178.5,96.5C 179.651,95.269 180.817,95.269 182,96.5C 182.667,98.1667 182.667,99.8333 182,101.5C 180.186,102.851 180.519,103.851 183,104.5C 186.816,100.826 190.983,97.8256 195.5,95.5 Z"/></g>
<g><path style="opacity:1" fill="#12522a" d="M 206.5,122.5 C 207.338,122.842 207.672,123.508 207.5,124.5C 207.813,127.247 207.48,129.914 206.5,132.5C 204.507,134.499 202.173,135.999 199.5,137C 184.697,137.526 178.197,130.359 180,115.5C 181.825,112.689 183.158,109.689 184,106.5C 186.264,102.118 189.764,100.618 194.5,102C 195.059,102.725 195.392,103.558 195.5,104.5C 193.789,108.393 192.289,112.393 191,116.5C 189.167,126 193,129.833 202.5,128C 203.488,125.833 204.821,124 206.5,122.5 Z"/></g>
<g><path style="opacity:1" fill="#143d1d" d="M 285.5,119.5 C 292.307,122.467 298.14,126.8 303,132.5C 303.05,136.157 303.883,139.49 305.5,142.5C 305.5,143.5 305.5,144.5 305.5,145.5C 302.654,145.191 301.154,143.525 301,140.5C 289.659,129.592 278.659,129.925 268,141.5C 265.337,146.97 264.837,152.637 266.5,158.5C 266.719,159.675 266.386,160.675 265.5,161.5C 264.167,159.833 262.833,158.167 261.5,156.5C 260.914,156.709 260.414,157.043 260,157.5C 259.247,152.625 259.414,147.792 260.5,143C 259.91,140.804 259.243,138.638 258.5,136.5C 259.035,134.899 260.035,134.399 261.5,135C 261.966,136.299 261.966,137.799 261.5,139.5C 265.404,138.935 267.404,136.935 267.5,133.5C 266.112,130.921 264.612,130.921 263,133.5C 262.658,131.182 263.158,129.015 264.5,127C 262.651,125.907 260.984,124.574 259.5,123C 261.945,120.389 264.945,118.889 268.5,118.5C 274.058,118.289 279.724,118.623 285.5,119.5 Z"/></g>
<g><path style="opacity:1" fill="#437b27" d="M 154.5,74.5 C 155.376,74.3691 156.043,74.7025 156.5,75.5C 155.065,76.9285 154.065,78.5952 153.5,80.5C 154.756,83.012 154.756,85.512 153.5,88C 155.907,90.0921 155.907,92.0921 153.5,94C 155.929,94.4512 156.096,95.2845 154,96.5C 153.102,100.821 152.269,105.155 151.5,109.5C 152.74,114.16 152.74,118.826 151.5,123.5C 149.331,128.002 146.998,132.502 144.5,137C 144.833,137.333 145.167,137.667 145.5,138C 144.773,139.399 144.273,140.899 144,142.5C 141.563,142.868 138.897,143.534 136,144.5C 134.612,143.446 133.112,143.28 131.5,144C 132.167,144.333 132.833,144.667 133.5,145C 130.693,146.589 127.86,147.089 125,146.5C 123.358,148.806 121.858,151.139 120.5,153.5C 119.804,156.556 118.97,159.556 118,162.5C 116.971,158.427 116.138,154.427 115.5,150.5C 114.94,136.576 116.94,123.076 121.5,110C 125.711,106.914 128.711,102.914 130.5,98C 130.167,97.6667 129.833,97.3333 129.5,97C 135.758,87.2026 144.092,79.7026 154.5,74.5 Z"/></g>
<g><path style="opacity:1" fill="#64952c" d="M 151.5,81.5 C 135.541,99.277 125.208,119.944 120.5,143.5C 119.603,144.598 118.77,144.598 118,143.5C 117.232,136.045 117.899,128.711 120,121.5C 124.192,114.449 127.859,107.116 131,99.5C 137.317,92.0164 144.15,85.0164 151.5,78.5C 152.562,79.4246 152.562,80.4246 151.5,81.5 Z"/></g>
<g><path style="opacity:1" fill="#477f21" d="M 151.5,81.5 C 149.967,86.0626 148.301,90.5626 146.5,95C 147.732,97.1508 147.732,99.3175 146.5,101.5C 148.854,103.982 149.02,106.648 147,109.5C 146.07,107.034 145.237,107.201 144.5,110C 145.167,111 145.833,112 146.5,113C 145.873,116.517 145.207,120.017 144.5,123.5C 145.911,125.017 145.744,126.351 144,127.5C 143.929,123.313 143.262,119.313 142,115.5C 140.89,117.397 140.724,119.23 141.5,121C 140.692,121.308 140.025,121.808 139.5,122.5C 141.04,123.532 141.54,124.865 141,126.5C 137.2,131.804 132.367,135.804 126.5,138.5C 125.549,137.674 124.549,137.508 123.5,138C 122.751,139.734 122.251,141.567 122,143.5C 121.31,144.738 120.81,144.738 120.5,143.5C 125.208,119.944 135.541,99.277 151.5,81.5 Z"/></g>
<g><path style="opacity:0.996" fill="#4d792d" d="M 343.5,92.5 C 343.5,93.1667 343.5,93.8333 343.5,94.5C 335.44,89.0766 327.44,89.2433 319.5,95C 307.611,105.766 307.611,116.6 319.5,127.5C 315.621,128.415 311.954,127.748 308.5,125.5C 306.249,124.182 304.249,122.516 302.5,120.5C 305.406,121.787 308.406,122.787 311.5,123.5C 308.19,115.814 307.856,107.981 310.5,100C 310.167,99.6667 309.833,99.3333 309.5,99C 311.134,98.5065 312.801,98.3398 314.5,98.5C 315.019,94.9521 315.019,91.9521 314.5,89.5C 316.059,90.0736 317.559,90.7402 319,91.5C 327.568,86.1352 335.735,86.4686 343.5,92.5 Z"/></g>
<g><path style="opacity:1" fill="#1d491a" d="M 267.5,116.5 C 271.514,116.334 275.514,116.501 279.5,117C 281.852,117.24 283.852,118.073 285.5,119.5C 279.724,118.623 274.058,118.289 268.5,118.5C 264.945,118.889 261.945,120.389 259.5,123C 260.984,124.574 262.651,125.907 264.5,127C 263.158,129.015 262.658,131.182 263,133.5C 264.612,130.921 266.112,130.921 267.5,133.5C 267.404,136.935 265.404,138.935 261.5,139.5C 261.966,137.799 261.966,136.299 261.5,135C 260.035,134.399 259.035,134.899 258.5,136.5C 259.243,138.638 259.91,140.804 260.5,143C 259.414,147.792 259.247,152.625 260,157.5C 260.414,157.043 260.914,156.709 261.5,156.5C 262.833,158.167 264.167,159.833 265.5,161.5C 266.386,160.675 266.719,159.675 266.5,158.5C 267.488,159.795 268.488,161.128 269.5,162.5C 270.105,165.127 270.605,167.793 271,170.5C 271.718,169.549 272.551,169.383 273.5,170C 275.395,171.765 277.229,173.598 279,175.5C 279.667,177.167 279.667,178.833 279,180.5C 278.346,179.304 277.846,179.304 277.5,180.5C 280.954,185.162 282.288,190.496 281.5,196.5C 284.5,195.833 287.5,195.167 290.5,194.5C 290.5,194.833 290.5,195.167 290.5,195.5C 289.391,195.557 288.391,195.89 287.5,196.5C 285.236,197.219 282.903,197.552 280.5,197.5C 280.048,193.837 279.548,190.17 279,186.5C 278,186.167 277,185.833 276,185.5C 274.667,182.167 273.333,178.833 272,175.5C 271.292,174.619 270.458,173.953 269.5,173.5C 260.804,165.828 250.804,160.828 239.5,158.5C 241.424,158.289 241.757,157.623 240.5,156.5C 236.456,148.988 234.956,140.988 236,132.5C 236.232,131.263 236.732,130.263 237.5,129.5C 237.334,134.511 237.501,139.511 238,144.5C 238.414,144.957 238.914,145.291 239.5,145.5C 240.318,142.893 240.818,140.226 241,137.5C 246.529,126.118 255.362,119.118 267.5,116.5 Z"/></g>
<g><path style="opacity:1" fill="#367426" d="M 218.5,154.5 C 218.5,154.833 218.5,155.167 218.5,155.5C 217.391,155.557 216.391,155.89 215.5,156.5C 216.605,154.287 216.605,152.12 215.5,150C 211.806,148.289 208.306,148.456 205,150.5C 201.471,148.842 198.305,149.342 195.5,152C 195.531,153.721 196.198,155.554 197.5,157.5C 200.443,158.244 203.443,158.744 206.5,159C 207.056,159.383 207.389,159.883 207.5,160.5C 200.658,160.961 193.991,160.128 187.5,158C 185.314,156.588 183.648,154.755 182.5,152.5C 182.5,151.167 182.5,149.833 182.5,148.5C 185.518,148.665 188.518,148.498 191.5,148C 199.779,147.238 200.446,144.904 193.5,141C 196.5,140.667 199.5,140.333 202.5,140C 204.082,137.915 206.082,136.415 208.5,135.5C 209.585,132.227 209.752,128.894 209,125.5C 208.617,124.944 208.117,124.611 207.5,124.5C 207.672,123.508 207.338,122.842 206.5,122.5C 205.469,121.751 204.302,121.085 203,120.5C 201.887,121.76 201.72,122.927 202.5,124C 201.355,125.859 199.688,126.693 197.5,126.5C 194.358,125.257 192.358,122.923 191.5,119.5C 194.681,116.328 197.014,112.495 198.5,108C 201.478,107.304 204.478,106.804 207.5,106.5C 207.428,102.374 206.761,98.3735 205.5,94.5C 202.455,94.3418 199.621,95.0085 197,96.5C 196.617,95.944 196.117,95.6107 195.5,95.5C 191.898,95.322 191.898,94.322 195.5,92.5C 194.975,91.8076 194.308,91.3076 193.5,91C 195,90.1667 196.167,89 197,87.5C 197.333,88.1667 197.667,88.8333 198,89.5C 200.768,88.7924 201.601,87.2924 200.5,85C 201.88,83.6764 202.214,82.3431 201.5,81C 204.176,80.2604 206.842,79.9271 209.5,80C 209.989,82.4904 211.323,84.3237 213.5,85.5C 214.655,88.4459 214.821,91.4459 214,94.5C 210.303,93.3567 209.803,94.1901 212.5,97C 212.167,97.3333 211.833,97.6667 211.5,98C 213.269,100.269 213.935,102.602 213.5,105C 214.416,105.374 215.25,105.874 216,106.5C 216.471,104.754 217.138,103.087 218,101.5C 219.187,108.912 220.687,116.246 222.5,123.5C 219.064,133.465 217.731,143.799 218.5,154.5 Z"/></g>
<g><path style="opacity:1" fill="#1c5f2c" d="M 182.5,152.5 C 183.648,154.755 185.314,156.588 187.5,158C 193.991,160.128 200.658,160.961 207.5,160.5C 209.035,161.788 210.701,161.788 212.5,160.5C 213.035,158.739 214.035,157.406 215.5,156.5C 216.391,155.89 217.391,155.557 218.5,155.5C 214.407,162.815 208.073,165.648 199.5,164C 196.833,164.667 194.167,165.333 191.5,166C 191.957,166.414 192.291,166.914 192.5,167.5C 189.291,168.787 186.125,168.787 183,167.5C 182.667,168.167 182.333,168.833 182,169.5C 180.703,168.216 179.536,168.383 178.5,170C 179.624,170.839 180.291,172.006 180.5,173.5C 179.909,181.198 179.076,188.864 178,196.5C 173.365,198.652 169.032,201.319 165,204.5C 164.667,204.167 164.333,203.833 164,203.5C 161.443,205.952 158.943,205.952 156.5,203.5C 172.536,201.934 179.703,192.934 178,176.5C 177.617,175.944 177.117,175.611 176.5,175.5C 174.364,173.188 172.364,170.688 170.5,168C 169.552,167.517 168.552,167.351 167.5,167.5C 167.5,166.833 167.167,166.5 166.5,166.5C 165.691,162.979 167.358,161.313 171.5,161.5C 172.363,157.838 171.03,155.672 167.5,155C 162.008,148.673 158.008,141.506 155.5,133.5C 154.758,127.51 154.591,121.51 155,115.5C 156.704,112.001 158.038,108.334 159,104.5C 160.587,103.273 161.921,103.606 163,105.5C 163.333,112.833 163.667,120.167 164,127.5C 164.695,129.722 165.528,131.889 166.5,134C 171.519,137.147 174.852,141.647 176.5,147.5C 177.885,149.883 179.885,151.55 182.5,152.5 Z"/></g>
<g><path style="opacity:1" fill="#347228" d="M 159.5,70.5 C 159.833,70.5 160.167,70.5 160.5,70.5C 162.276,70.7938 164.276,70.9605 166.5,71C 167.26,72.4411 167.926,73.9411 168.5,75.5C 166.28,79.2725 164.614,83.2725 163.5,87.5C 160.411,91.1575 158.911,95.4909 159,100.5C 153.292,111.142 152.126,122.142 155.5,133.5C 158.008,141.506 162.008,148.673 167.5,155C 171.03,155.672 172.363,157.838 171.5,161.5C 167.358,161.313 165.691,162.979 166.5,166.5C 164.91,166.372 163.577,165.705 162.5,164.5C 158.893,163.511 155.226,163.177 151.5,163.5C 152.609,162.71 153.942,162.21 155.5,162C 149.833,161.333 144.167,161.333 138.5,162C 135.664,162.921 132.998,164.088 130.5,165.5C 126.061,167.79 123.227,171.457 122,176.5C 119.907,173.956 118.907,170.956 119,167.5C 117.615,166.449 116.615,165.116 116,163.5C 115.501,159.179 115.334,154.846 115.5,150.5C 116.138,154.427 116.971,158.427 118,162.5C 118.97,159.556 119.804,156.556 120.5,153.5C 121.858,151.139 123.358,148.806 125,146.5C 127.86,147.089 130.693,146.589 133.5,145C 132.833,144.667 132.167,144.333 131.5,144C 133.112,143.28 134.612,143.446 136,144.5C 138.897,143.534 141.563,142.868 144,142.5C 144.273,140.899 144.773,139.399 145.5,138C 145.167,137.667 144.833,137.333 144.5,137C 146.998,132.502 149.331,128.002 151.5,123.5C 152.74,118.826 152.74,114.16 151.5,109.5C 152.269,105.155 153.102,100.821 154,96.5C 156.096,95.2845 155.929,94.4512 153.5,94C 155.907,92.0921 155.907,90.0921 153.5,88C 154.756,85.512 154.756,83.012 153.5,80.5C 154.065,78.5952 155.065,76.9285 156.5,75.5C 156.043,74.7025 155.376,74.3691 154.5,74.5C 156.349,73.407 158.016,72.0737 159.5,70.5 Z"/></g>
<g><path style="opacity:0.984" fill="#869c3d" d="M 347.5,107.5 C 348.458,107.953 349.292,108.619 350,109.5C 350.5,117.493 350.666,125.493 350.5,133.5C 350.5,136.5 350.5,139.5 350.5,142.5C 349.069,143.903 347.902,145.569 347,147.5C 345.628,152.794 343.795,157.794 341.5,162.5C 340.833,162.5 340.167,162.5 339.5,162.5C 348.57,145.08 351.237,126.747 347.5,107.5 Z"/></g>
<g><path style="opacity:1" fill="#7b9c0f" d="M 390.5,107.5 C 391.483,117.669 391.483,128.003 390.5,138.5C 387.759,140.975 385.759,143.975 384.5,147.5C 383.732,146.737 383.232,145.737 383,144.5C 382.751,145.624 382.251,146.624 381.5,147.5C 380.575,146.359 379.741,146.359 379,147.5C 379.979,149.279 379.646,150.945 378,152.5C 377.667,152.167 377.333,151.833 377,151.5C 373.464,154.701 370.297,158.201 367.5,162C 365.422,164.134 363.588,163.968 362,161.5C 361.333,162.167 360.667,162.833 360,163.5C 358.341,162.183 357.174,160.517 356.5,158.5C 358.912,153.714 360.078,148.714 360,143.5C 356.626,142.626 353.459,142.293 350.5,142.5C 350.5,139.5 350.5,136.5 350.5,133.5C 351.309,131.708 351.809,129.708 352,127.5C 352.495,129.473 352.662,131.473 352.5,133.5C 355.199,133.466 357.699,134.133 360,135.5C 360.915,134.672 361.581,133.672 362,132.5C 362.323,137.956 362.49,143.289 362.5,148.5C 367.113,148.394 371.78,148.228 376.5,148C 378.737,145.97 380.237,143.47 381,140.5C 381.989,132.189 384.656,124.522 389,117.5C 389.333,117.833 389.667,118.167 390,118.5C 390.499,114.848 390.665,111.182 390.5,107.5 Z"/></g>
<g><path style="opacity:1" fill="#4d8422" d="M 215.5,156.5 C 214.035,157.406 213.035,158.739 212.5,160.5C 210.701,161.788 209.035,161.788 207.5,160.5C 207.389,159.883 207.056,159.383 206.5,159C 203.443,158.744 200.443,158.244 197.5,157.5C 196.198,155.554 195.531,153.721 195.5,152C 198.305,149.342 201.471,148.842 205,150.5C 208.306,148.456 211.806,148.289 215.5,150C 216.605,152.12 216.605,154.287 215.5,156.5 Z"/></g>
<g><path style="opacity:1" fill="#66900d" d="M 350.5,142.5 C 353.459,142.293 356.626,142.626 360,143.5C 360.078,148.714 358.912,153.714 356.5,158.5C 357.174,160.517 358.341,162.183 360,163.5C 360.667,162.833 361.333,162.167 362,161.5C 363.588,163.968 365.422,164.134 367.5,162C 370.297,158.201 373.464,154.701 377,151.5C 377.333,151.833 377.667,152.167 378,152.5C 379.646,150.945 379.979,149.279 379,147.5C 379.741,146.359 380.575,146.359 381.5,147.5C 382.251,146.624 382.751,145.624 383,144.5C 383.232,145.737 383.732,146.737 384.5,147.5C 383.165,152.973 381.332,158.306 379,163.5C 378.667,162.5 378.333,161.5 378,160.5C 376.097,162.441 375.264,164.774 375.5,167.5C 374.127,167.343 372.793,167.51 371.5,168C 368.86,170.783 366.86,173.95 365.5,177.5C 364.335,176.509 363.168,175.509 362,174.5C 359.945,175.692 357.945,175.692 356,174.5C 349.51,177.728 343.01,181.061 336.5,184.5C 336.167,184.333 335.833,184.167 335.5,184C 338.233,182.269 340.233,179.936 341.5,177C 341.318,174.137 341.318,171.303 341.5,168.5C 339.469,169.539 338.136,171.205 337.5,173.5C 336.308,169.817 337.641,167.317 341.5,166C 340.316,164.855 340.316,163.688 341.5,162.5C 343.795,157.794 345.628,152.794 347,147.5C 347.902,145.569 349.069,143.903 350.5,142.5 Z"/></g>
<g><path style="opacity:1" fill="#326d31" d="M 159.5,70.5 C 158.016,72.0737 156.349,73.407 154.5,74.5C 144.092,79.7026 135.758,87.2026 129.5,97C 129.833,97.3333 130.167,97.6667 130.5,98C 128.711,102.914 125.711,106.914 121.5,110C 116.94,123.076 114.94,136.576 115.5,150.5C 115.334,154.846 115.501,159.179 116,163.5C 116.615,165.116 117.615,166.449 119,167.5C 118.907,170.956 119.907,173.956 122,176.5C 123.227,171.457 126.061,167.79 130.5,165.5C 127.122,169.409 124.455,173.742 122.5,178.5C 119.112,175.882 117.112,172.382 116.5,168C 114.068,165.737 112.568,162.904 112,159.5C 106.213,132.888 112.879,110.221 132,91.5C 134.239,86.9226 136.905,82.5893 140,78.5C 146.185,75.1696 152.685,72.503 159.5,70.5 Z"/></g>
<g><path style="opacity:1" fill="#1c5b2f" d="M 191.5,55.5 C 191.586,56.4959 191.252,57.3292 190.5,58C 184.769,59.3646 179.769,62.0313 175.5,66C 170.319,67.3244 165.319,68.8244 160.5,70.5C 160.167,70.5 159.833,70.5 159.5,70.5C 152.685,72.503 146.185,75.1696 140,78.5C 136.905,82.5893 134.239,86.9226 132,91.5C 112.879,110.221 106.213,132.888 112,159.5C 112.568,162.904 114.068,165.737 116.5,168C 117.112,172.382 119.112,175.882 122.5,178.5C 124.455,173.742 127.122,169.409 130.5,165.5C 132.998,164.088 135.664,162.921 138.5,162C 144.167,161.333 149.833,161.333 155.5,162C 153.942,162.21 152.609,162.71 151.5,163.5C 148.833,163.833 146.167,164.167 143.5,164.5C 140.955,168.234 138.122,171.901 135,175.5C 131.141,184.904 130.474,194.57 133,204.5C 133.852,205.571 134.685,206.571 135.5,207.5C 137.967,212.878 140.633,218.212 143.5,223.5C 143.5,224.5 143.5,225.5 143.5,226.5C 144.5,226.5 145.5,226.5 146.5,226.5C 146.351,227.552 146.517,228.552 147,229.5C 149.669,231.34 152.169,233.34 154.5,235.5C 156.595,239.099 159.262,242.266 162.5,245C 166.75,247.374 170.916,249.874 175,252.5C 176.667,252.167 178.333,251.833 180,251.5C 180.188,249.939 179.355,249.272 177.5,249.5C 178.624,244.186 178.624,238.852 177.5,233.5C 178.833,233.5 180.167,233.5 181.5,233.5C 181.896,236.482 181.229,239.149 179.5,241.5C 180.661,243.885 181.661,246.219 182.5,248.5C 183.974,249.584 184.807,250.918 185,252.5C 182.653,254.014 180.82,256.014 179.5,258.5C 178.817,258.137 178.15,257.804 177.5,257.5C 172.819,255.333 168.819,252.167 165.5,248C 162.417,246.861 159.417,245.528 156.5,244C 155.707,242.915 155.04,241.748 154.5,240.5C 146.832,233.285 139.332,225.952 132,218.5C 131.517,217.552 131.351,216.552 131.5,215.5C 128.947,208.552 125.947,201.719 122.5,195C 124.093,192.095 125.093,188.929 125.5,185.5C 122.956,185.051 120.29,185.051 117.5,185.5C 117.5,182.167 117.5,178.833 117.5,175.5C 115.833,175.5 114.167,175.5 112.5,175.5C 112.82,172.102 112.487,168.768 111.5,165.5C 110.132,163.363 109.132,161.03 108.5,158.5C 107.382,144.835 107.382,131.168 108.5,117.5C 112.671,101.838 121.338,89.3376 134.5,80C 138.5,77.3333 142.5,74.6667 146.5,72C 161.742,66.9475 176.742,61.4475 191.5,55.5 Z"/></g>
<g><path style="opacity:1" fill="#16582e" d="M 222.5,150.5 C 224.659,151.785 225.326,153.452 224.5,155.5C 223.662,155.842 223.328,156.508 223.5,157.5C 222.833,157.5 222.5,157.833 222.5,158.5C 220.193,159.653 217.86,160.82 215.5,162C 213.26,165.743 210.26,168.576 206.5,170.5C 204.609,169.464 202.776,169.464 201,170.5C 200.732,175.65 199.732,180.65 198,185.5C 193.481,194.044 189.148,202.711 185,211.5C 182.931,217.156 181.931,222.822 182,228.5C 177.549,226.76 173.049,225.093 168.5,223.5C 164.365,218.467 160.365,213.301 156.5,208C 155.552,207.517 154.552,207.351 153.5,207.5C 153.088,205.027 154.088,203.694 156.5,203.5C 158.943,205.952 161.443,205.952 164,203.5C 164.333,203.833 164.667,204.167 165,204.5C 169.032,201.319 173.365,198.652 178,196.5C 179.076,188.864 179.909,181.198 180.5,173.5C 180.291,172.006 179.624,170.839 178.5,170C 179.536,168.383 180.703,168.216 182,169.5C 182.333,168.833 182.667,168.167 183,167.5C 186.125,168.787 189.291,168.787 192.5,167.5C 192.291,166.914 191.957,166.414 191.5,166C 194.167,165.333 196.833,164.667 199.5,164C 208.073,165.648 214.407,162.815 218.5,155.5C 218.5,155.167 218.5,154.833 218.5,154.5C 220.167,153.5 221.5,152.167 222.5,150.5 Z"/></g>
<g><path style="opacity:1" fill="#417c25" d="M 151.5,163.5 C 155.226,163.177 158.893,163.511 162.5,164.5C 163.577,165.705 164.91,166.372 166.5,166.5C 167.167,166.5 167.5,166.833 167.5,167.5C 169.081,169.142 169.747,171.142 169.5,173.5C 167.712,173.215 166.045,173.548 164.5,174.5C 165.242,175.287 166.075,175.953 167,176.5C 167.424,178.976 168.257,181.309 169.5,183.5C 168.008,185.972 167.342,188.639 167.5,191.5C 164.254,191.23 161.254,190.897 158.5,190.5C 157.833,192.5 157.167,194.5 156.5,196.5C 149.107,196.263 146.607,192.597 149,185.5C 149.785,183.714 150.951,182.214 152.5,181C 151.5,180.333 150.5,180.333 149.5,181C 144.743,186.442 143.41,192.775 145.5,200C 145.463,203.081 144.463,205.748 142.5,208C 143.433,209.608 142.767,210.441 140.5,210.5C 138.308,210.243 136.641,209.243 135.5,207.5C 134.685,206.571 133.852,205.571 133,204.5C 130.474,194.57 131.141,184.904 135,175.5C 138.122,171.901 140.955,168.234 143.5,164.5C 146.167,164.167 148.833,163.833 151.5,163.5 Z"/></g>
<g><path style="opacity:1" fill="#5a8c2c" d="M 224.5,155.5 C 228.66,156.357 232.993,157.024 237.5,157.5C 238.726,157.48 239.726,157.147 240.5,156.5C 241.757,157.623 241.424,158.289 239.5,158.5C 238.5,158.5 237.5,158.5 236.5,158.5C 234.5,158.5 232.5,158.5 230.5,158.5C 229.761,158.369 229.094,158.536 228.5,159C 230.794,163.066 234.294,165.233 239,165.5C 241.002,170.607 243.502,175.274 246.5,179.5C 244.187,182.502 243.854,185.836 245.5,189.5C 243.279,195.422 241.946,201.422 241.5,207.5C 242.068,202.187 241.235,197.187 239,192.5C 235.571,188.561 231.737,185.228 227.5,182.5C 225.118,180.954 222.451,180.287 219.5,180.5C 219.443,179.391 219.11,178.391 218.5,177.5C 220.378,171.413 221.711,165.079 222.5,158.5C 223.167,158.5 223.5,158.167 223.5,157.5C 223.328,156.508 223.662,155.842 224.5,155.5 Z"/></g>
<g><path style="opacity:1" fill="#648f0d" d="M 230.5,158.5 C 232.819,161.294 235.819,163.128 239.5,164C 245.021,169.517 248.854,176.017 251,183.5C 251.047,189.341 251.714,195.008 253,200.5C 257.266,192.772 258.599,184.438 257,175.5C 255.262,171.759 252.762,168.592 249.5,166C 245.093,163.389 240.76,160.889 236.5,158.5C 237.5,158.5 238.5,158.5 239.5,158.5C 250.804,160.828 260.804,165.828 269.5,173.5C 270.926,176.522 271.926,179.688 272.5,183C 271.837,186.473 271.504,189.973 271.5,193.5C 269.213,193.724 267.047,194.391 265,195.5C 259.424,198.738 254.424,202.738 250,207.5C 249.582,198.814 248.915,190.147 248,181.5C 247.722,180.584 247.222,179.918 246.5,179.5C 243.502,175.274 241.002,170.607 239,165.5C 234.294,165.233 230.794,163.066 228.5,159C 229.094,158.536 229.761,158.369 230.5,158.5 Z"/></g>
<g><path style="opacity:1" fill="#285a3d" d="M 108.5,117.5 C 107.382,131.168 107.382,144.835 108.5,158.5C 109.132,161.03 110.132,163.363 111.5,165.5C 112.487,168.768 112.82,172.102 112.5,175.5C 114.167,175.5 115.833,175.5 117.5,175.5C 117.5,178.833 117.5,182.167 117.5,185.5C 120.29,185.051 122.956,185.051 125.5,185.5C 125.093,188.929 124.093,192.095 122.5,195C 125.947,201.719 128.947,208.552 131.5,215.5C 130.425,214.438 129.425,214.438 128.5,215.5C 129.641,216.425 129.641,217.259 128.5,218C 129.167,218.333 129.833,218.667 130.5,219C 130.216,220.956 130.216,223.123 130.5,225.5C 128.247,220.843 126.747,215.843 126,210.5C 109.874,184.781 103.207,156.781 106,126.5C 106.66,123.322 107.493,120.322 108.5,117.5 Z"/></g>
<g><path style="opacity:0.004" fill="#fefffe" d="M 79.5,182.5 C 80.8333,183.167 80.8333,183.167 79.5,182.5 Z"/></g>
<g><path style="opacity:1" fill="#90a80a" d="M 230.5,158.5 C 232.5,158.5 234.5,158.5 236.5,158.5C 240.76,160.889 245.093,163.389 249.5,166C 252.762,168.592 255.262,171.759 257,175.5C 258.599,184.438 257.266,192.772 253,200.5C 251.714,195.008 251.047,189.341 251,183.5C 248.854,176.017 245.021,169.517 239.5,164C 235.819,163.128 232.819,161.294 230.5,158.5 Z"/></g>
<g><path style="opacity:1" fill="#4e8016" d="M 390.5,138.5 C 386.527,158.136 376.194,173.47 359.5,184.5C 353.224,187.301 346.891,190.135 340.5,193C 336.245,193.796 332.079,193.629 328,192.5C 326.961,193.244 326.461,194.244 326.5,195.5C 322.185,194.611 317.852,193.611 313.5,192.5C 312.287,192.253 311.62,191.586 311.5,190.5C 316.945,186.595 322.279,182.428 327.5,178C 332.125,173.216 336.125,168.049 339.5,162.5C 340.167,162.5 340.833,162.5 341.5,162.5C 340.316,163.688 340.316,164.855 341.5,166C 337.641,167.317 336.308,169.817 337.5,173.5C 338.136,171.205 339.469,169.539 341.5,168.5C 341.318,171.303 341.318,174.137 341.5,177C 340.233,179.936 338.233,182.269 335.5,184C 335.833,184.167 336.167,184.333 336.5,184.5C 343.01,181.061 349.51,177.728 356,174.5C 357.945,175.692 359.945,175.692 362,174.5C 363.168,175.509 364.335,176.509 365.5,177.5C 366.86,173.95 368.86,170.783 371.5,168C 372.793,167.51 374.127,167.343 375.5,167.5C 375.264,164.774 376.097,162.441 378,160.5C 378.333,161.5 378.667,162.5 379,163.5C 381.332,158.306 383.165,152.973 384.5,147.5C 385.759,143.975 387.759,140.975 390.5,138.5 Z"/></g>
<g><path style="opacity:1" fill="#173e1d" d="M 269.5,162.5 C 275.952,168.231 282.618,173.731 289.5,179C 293.131,182.785 296.131,186.951 298.5,191.5C 296.403,193.482 293.736,194.482 290.5,194.5C 287.5,195.167 284.5,195.833 281.5,196.5C 282.288,190.496 280.954,185.162 277.5,180.5C 277.846,179.304 278.346,179.304 279,180.5C 279.667,178.833 279.667,177.167 279,175.5C 277.229,173.598 275.395,171.765 273.5,170C 272.551,169.383 271.718,169.549 271,170.5C 270.605,167.793 270.105,165.127 269.5,162.5 Z"/></g>
<g><path style="opacity:1" fill="#97ab04" d="M 219.5,180.5 C 222.451,180.287 225.118,180.954 227.5,182.5C 229.869,186.7 233.036,190.033 237,192.5C 239.773,201.091 240.107,209.758 238,218.5C 235.244,215.982 233.244,212.982 232,209.5C 228.634,207.598 225.801,205.098 223.5,202C 221.421,201.192 219.421,201.359 217.5,202.5C 216.065,204.374 214.898,206.374 214,208.5C 210.555,208.523 207.055,208.19 203.5,207.5C 202.673,209.162 201.507,210.495 200,211.5C 197.052,208.255 196.219,204.588 197.5,200.5C 202.603,194.895 207.936,189.395 213.5,184C 215.388,182.606 217.388,181.44 219.5,180.5 Z"/></g>
<g><path style="opacity:0.686" fill="#5d7c3a" d="M 359.5,184.5 C 355.939,187.532 351.939,190.032 347.5,192C 341.117,194.231 334.784,196.065 328.5,197.5C 327.167,197.5 326.5,196.833 326.5,195.5C 326.461,194.244 326.961,193.244 328,192.5C 332.079,193.629 336.245,193.796 340.5,193C 346.891,190.135 353.224,187.301 359.5,184.5 Z"/></g>
<g><path style="opacity:0.004" fill="#fefffe" d="M 74.5,193.5 C 75.8333,194.167 75.8333,194.167 74.5,193.5 Z"/></g>
<g><path style="opacity:1" fill="#26662b" d="M 206.5,170.5 C 210.24,173.367 214.24,175.7 218.5,177.5C 219.11,178.391 219.443,179.391 219.5,180.5C 217.388,181.44 215.388,182.606 213.5,184C 207.936,189.395 202.603,194.895 197.5,200.5C 196.599,201.29 195.932,202.29 195.5,203.5C 186.276,216.651 182.276,231.317 183.5,247.5C 185.216,247.371 186.883,247.038 188.5,246.5C 187.01,248.28 185.01,248.946 182.5,248.5C 181.661,246.219 180.661,243.885 179.5,241.5C 181.229,239.149 181.896,236.482 181.5,233.5C 180.167,233.5 178.833,233.5 177.5,233.5C 178.624,238.852 178.624,244.186 177.5,249.5C 179.355,249.272 180.188,249.939 180,251.5C 178.333,251.833 176.667,252.167 175,252.5C 170.916,249.874 166.75,247.374 162.5,245C 159.262,242.266 156.595,239.099 154.5,235.5C 152.169,233.34 149.669,231.34 147,229.5C 146.517,228.552 146.351,227.552 146.5,226.5C 145.5,226.5 144.5,226.5 143.5,226.5C 143.5,225.5 143.5,224.5 143.5,223.5C 145.527,223.338 147.527,223.505 149.5,224C 150.412,233.041 153.912,234.208 160,227.5C 160.333,227.833 160.667,228.167 161,228.5C 161.483,227.552 161.649,226.552 161.5,225.5C 163.527,225.662 165.527,225.495 167.5,225C 163.837,221.867 161.004,218.034 159,213.5C 156.291,210.622 153.458,207.956 150.5,205.5C 148.524,202.29 147.858,198.957 148.5,195.5C 155.344,201.916 162.344,202.083 169.5,196C 170.781,193.597 172.614,191.763 175,190.5C 176.25,185.58 176.75,180.58 176.5,175.5C 177.117,175.611 177.617,175.944 178,176.5C 179.703,192.934 172.536,201.934 156.5,203.5C 154.088,203.694 153.088,205.027 153.5,207.5C 154.552,207.351 155.552,207.517 156.5,208C 160.365,213.301 164.365,218.467 168.5,223.5C 173.049,225.093 177.549,226.76 182,228.5C 181.931,222.822 182.931,217.156 185,211.5C 189.148,202.711 193.481,194.044 198,185.5C 199.732,180.65 200.732,175.65 201,170.5C 202.776,169.464 204.609,169.464 206.5,170.5 Z"/></g>
<g><path style="opacity:1" fill="#8aa405" d="M 315.5,195.5 C 316.438,197.326 317.438,199.159 318.5,201C 317.246,204.159 317.246,207.325 318.5,210.5C 318.406,212.689 317.739,214.689 316.5,216.5C 316.833,217.167 317.167,217.833 317.5,218.5C 315.145,221.693 312.979,225.026 311,228.5C 309.989,229.337 308.822,229.67 307.5,229.5C 307.649,230.552 307.483,231.552 307,232.5C 303.631,232.044 300.464,230.711 297.5,228.5C 294.122,226.105 290.789,223.771 287.5,221.5C 285.68,219.552 283.346,218.552 280.5,218.5C 280.5,215.5 280.5,212.5 280.5,209.5C 280.335,206.482 280.502,203.482 281,200.5C 281.671,199.748 282.504,199.414 283.5,199.5C 285.076,198.857 286.41,197.857 287.5,196.5C 288.391,195.89 289.391,195.557 290.5,195.5C 295.812,194.741 301.145,194.075 306.5,193.5C 309.785,193.447 312.785,194.114 315.5,195.5 Z"/></g>
<g><path style="opacity:1" fill="#9cae03" d="M 283.5,199.5 C 286.71,198.828 289.876,197.828 293,196.5C 293.772,196.645 294.439,196.978 295,197.5C 297.313,195.963 299.813,195.463 302.5,196C 303.959,199.084 302.959,201.084 299.5,202C 301.259,203.008 302.426,204.508 303,206.5C 304.264,206.36 305.431,206.36 306.5,206.5C 302.4,208.009 300.234,211.009 300,215.5C 297.957,217.208 296.29,219.208 295,221.5C 290.892,219.058 286.392,217.725 281.5,217.5C 281.334,212.156 281.501,206.823 282,201.5C 282.717,200.956 283.217,200.289 283.5,199.5 Z"/></g>
<g><path style="opacity:1" fill="#347227" d="M 167.5,167.5 C 168.552,167.351 169.552,167.517 170.5,168C 172.364,170.688 174.364,173.188 176.5,175.5C 176.75,180.58 176.25,185.58 175,190.5C 172.614,191.763 170.781,193.597 169.5,196C 162.344,202.083 155.344,201.916 148.5,195.5C 147.858,198.957 148.524,202.29 150.5,205.5C 153.458,207.956 156.291,210.622 159,213.5C 161.004,218.034 163.837,221.867 167.5,225C 165.527,225.495 163.527,225.662 161.5,225.5C 161.649,226.552 161.483,227.552 161,228.5C 160.667,228.167 160.333,227.833 160,227.5C 153.912,234.208 150.412,233.041 149.5,224C 147.527,223.505 145.527,223.338 143.5,223.5C 140.633,218.212 137.967,212.878 135.5,207.5C 136.641,209.243 138.308,210.243 140.5,210.5C 142.767,210.441 143.433,209.608 142.5,208C 144.463,205.748 145.463,203.081 145.5,200C 143.41,192.775 144.743,186.442 149.5,181C 150.5,180.333 151.5,180.333 152.5,181C 150.951,182.214 149.785,183.714 149,185.5C 146.607,192.597 149.107,196.263 156.5,196.5C 157.167,194.5 157.833,192.5 158.5,190.5C 161.254,190.897 164.254,191.23 167.5,191.5C 167.342,188.639 168.008,185.972 169.5,183.5C 168.257,181.309 167.424,178.976 167,176.5C 166.075,175.953 165.242,175.287 164.5,174.5C 166.045,173.548 167.712,173.215 169.5,173.5C 169.747,171.142 169.081,169.142 167.5,167.5 Z"/></g>
<g><path style="opacity:1" fill="#3c7713" d="M 269.5,173.5 C 270.458,173.953 271.292,174.619 272,175.5C 273.333,178.833 274.667,182.167 276,185.5C 277,185.833 278,186.167 279,186.5C 279.548,190.17 280.048,193.837 280.5,197.5C 282.903,197.552 285.236,197.219 287.5,196.5C 286.41,197.857 285.076,198.857 283.5,199.5C 282.504,199.414 281.671,199.748 281,200.5C 280.502,203.482 280.335,206.482 280.5,209.5C 279.305,217.569 276.139,224.902 271,231.5C 265.717,235.392 259.883,238.059 253.5,239.5C 252.167,239.5 250.833,239.5 249.5,239.5C 246.853,249.481 240.519,255.814 230.5,258.5C 230.167,259.667 229.833,260.833 229.5,262C 230.633,264.954 231.966,267.788 233.5,270.5C 229.49,268.467 227.49,265.134 227.5,260.5C 218.877,260.626 210.211,260.292 201.5,259.5C 200.23,258.712 199.23,257.712 198.5,256.5C 203.547,257.135 207.214,255.135 209.5,250.5C 211.837,246.469 214.171,242.469 216.5,238.5C 221.234,233.968 226.9,231.301 233.5,230.5C 235.685,230.296 237.685,229.63 239.5,228.5C 241.461,221.913 242.128,214.913 241.5,207.5C 241.946,201.422 243.279,195.422 245.5,189.5C 243.854,185.836 244.187,182.502 246.5,179.5C 247.222,179.918 247.722,180.584 248,181.5C 248.915,190.147 249.582,198.814 250,207.5C 254.424,202.738 259.424,198.738 265,195.5C 267.047,194.391 269.213,193.724 271.5,193.5C 271.504,189.973 271.837,186.473 272.5,183C 271.926,179.688 270.926,176.522 269.5,173.5 Z"/></g>
<g><path style="opacity:1" fill="#7b9c0b" d="M 227.5,182.5 C 231.737,185.228 235.571,188.561 239,192.5C 241.235,197.187 242.068,202.187 241.5,207.5C 242.128,214.913 241.461,221.913 239.5,228.5C 237.123,227.113 234.457,226.279 231.5,226C 220.873,226.014 210.873,223.68 201.5,219C 196.472,215.073 194.472,209.906 195.5,203.5C 195.932,202.29 196.599,201.29 197.5,200.5C 196.219,204.588 197.052,208.255 200,211.5C 201.507,210.495 202.673,209.162 203.5,207.5C 207.055,208.19 210.555,208.523 214,208.5C 214.898,206.374 216.065,204.374 217.5,202.5C 219.421,201.359 221.421,201.192 223.5,202C 225.801,205.098 228.634,207.598 232,209.5C 233.244,212.982 235.244,215.982 238,218.5C 240.107,209.758 239.773,201.091 237,192.5C 233.036,190.033 229.869,186.7 227.5,182.5 Z"/></g>
<g><path style="opacity:1" fill="#5d8a0f" d="M 311.5,190.5 C 311.62,191.586 312.287,192.253 313.5,192.5C 317.852,193.611 322.185,194.611 326.5,195.5C 326.5,196.833 327.167,197.5 328.5,197.5C 333.42,199.419 337.087,202.752 339.5,207.5C 339.5,208.833 339.5,210.167 339.5,211.5C 338.21,210.942 337.377,209.942 337,208.5C 336.5,209 336,209.5 335.5,210C 336.386,212.326 336.886,214.826 337,217.5C 338.385,216.449 339.385,215.116 340,213.5C 340.903,214.701 342.069,215.535 343.5,216C 341.899,216.273 340.399,216.773 339,217.5C 338.147,222.317 336.981,226.984 335.5,231.5C 335.594,233.689 336.261,235.689 337.5,237.5C 336.009,239.012 334.176,240.012 332,240.5C 331.506,242.134 331.34,243.801 331.5,245.5C 326.264,246.235 323.764,249.235 324,254.5C 324.333,253.833 324.667,253.167 325,252.5C 325.212,254.78 326.045,256.78 327.5,258.5C 326.138,261.236 324.304,263.569 322,265.5C 320.589,269.084 319.089,272.251 317.5,275C 319.167,276 320.833,277 322.5,278C 321.521,279.779 321.854,281.445 323.5,283C 326.71,285.717 330.044,288.217 333.5,290.5C 335.049,293.462 336.382,296.629 337.5,300C 337.43,300.765 337.097,301.265 336.5,301.5C 333.808,295.475 329.475,291.141 323.5,288.5C 324.043,288.44 324.376,288.107 324.5,287.5C 322.479,286.145 320.812,284.479 319.5,282.5C 320.465,281.279 320.298,279.946 319,278.5C 308.023,273.689 304.023,265.356 307,253.5C 309.482,251.841 310.982,249.508 311.5,246.5C 312.689,245.571 314.022,245.238 315.5,245.5C 315.5,243.833 315.5,242.167 315.5,240.5C 316.675,240.719 317.675,240.386 318.5,239.5C 318.4,233.533 320.734,228.533 325.5,224.5C 328.803,218.742 329.303,212.742 327,206.5C 324.159,202.994 321.325,199.494 318.5,196C 317.552,195.517 316.552,195.351 315.5,195.5C 312.785,194.114 309.785,193.447 306.5,193.5C 301.145,194.075 295.812,194.741 290.5,195.5C 290.5,195.167 290.5,194.833 290.5,194.5C 293.736,194.482 296.403,193.482 298.5,191.5C 302.898,191.706 307.232,191.373 311.5,190.5 Z"/></g>
<g><path style="opacity:1" fill="#7a9c09" d="M 315.5,195.5 C 316.552,195.351 317.552,195.517 318.5,196C 321.325,199.494 324.159,202.994 327,206.5C 329.303,212.742 328.803,218.742 325.5,224.5C 320.734,228.533 318.4,233.533 318.5,239.5C 317.675,240.386 316.675,240.719 315.5,240.5C 315.5,242.167 315.5,243.833 315.5,245.5C 314.022,245.238 312.689,245.571 311.5,246.5C 310.982,249.508 309.482,251.841 307,253.5C 304.023,265.356 308.023,273.689 319,278.5C 320.298,279.946 320.465,281.279 319.5,282.5C 314.259,279.596 309.593,275.929 305.5,271.5C 302.778,263.845 303.111,256.345 306.5,249C 306.184,245.207 305.184,241.707 303.5,238.5C 303.649,237.448 303.483,236.448 303,235.5C 300.952,233.291 299.119,230.958 297.5,228.5C 300.464,230.711 303.631,232.044 307,232.5C 307.483,231.552 307.649,230.552 307.5,229.5C 308.822,229.67 309.989,229.337 311,228.5C 312.979,225.026 315.145,221.693 317.5,218.5C 317.167,217.833 316.833,217.167 316.5,216.5C 317.739,214.689 318.406,212.689 318.5,210.5C 317.246,207.325 317.246,204.159 318.5,201C 317.438,199.159 316.438,197.326 315.5,195.5 Z"/></g>
<g><path style="opacity:0.004" fill="#fefffe" d="M 15.5,221.5 C 16.8333,222.167 16.8333,222.167 15.5,221.5 Z"/></g>
<g><path style="opacity:1" fill="#4c8222" d="M 195.5,203.5 C 194.472,209.906 196.472,215.073 201.5,219C 210.873,223.68 220.873,226.014 231.5,226C 234.457,226.279 237.123,227.113 239.5,228.5C 237.685,229.63 235.685,230.296 233.5,230.5C 229.555,229.175 225.222,228.508 220.5,228.5C 208.318,226.892 197.818,230.225 189,238.5C 188.086,240.664 186.919,242.664 185.5,244.5C 185.833,244.833 186.167,245.167 186.5,245.5C 187.852,244.476 189.185,243.476 190.5,242.5C 191.496,242.414 192.329,242.748 193,243.5C 193.278,247.826 194.445,251.826 196.5,255.5C 193.238,253.075 191.738,249.742 192,245.5C 190.421,244.2 189.255,244.534 188.5,246.5C 186.883,247.038 185.216,247.371 183.5,247.5C 182.276,231.317 186.276,216.651 195.5,203.5 Z"/></g>
<g><path style="opacity:1" fill="#5a8a0e" d="M 276.5,197.5 C 277.693,197.97 278.36,198.97 278.5,200.5C 276.163,206.506 273.829,212.506 271.5,218.5C 268.476,220.003 265.81,222.17 263.5,225C 261.369,225.543 259.369,226.376 257.5,227.5C 255.957,230.086 254.291,232.586 252.5,235C 250.866,235.494 249.199,235.66 247.5,235.5C 247.662,237.527 247.495,239.527 247,241.5C 244.167,243 242,245.167 240.5,248C 238.866,248.494 237.199,248.66 235.5,248.5C 235.67,249.822 235.337,250.989 234.5,252C 228.314,254.248 221.981,256.248 215.5,258C 211.5,258.667 207.5,258.667 203.5,258C 209.561,257.469 214.228,254.636 217.5,249.5C 220.172,248.499 222.839,247.499 225.5,246.5C 228.463,241.406 231.796,236.572 235.5,232C 238.167,232 240.833,232 243.5,232C 243.867,228.593 244.033,225.093 244,221.5C 248.412,217.105 253.579,213.938 259.5,212C 264.736,206.592 270.403,201.759 276.5,197.5 Z"/></g>
<g><path style="opacity:0.004" fill="#fefffe" d="M 0.5,229.5 C 1.83333,230.167 1.83333,230.167 0.5,229.5 Z"/></g>
<g><path style="opacity:1" fill="#789c0e" d="M 233.5,230.5 C 226.9,231.301 221.234,233.968 216.5,238.5C 212.729,238.569 209.896,240.236 208,243.5C 205.849,237.837 202.682,237.17 198.5,241.5C 195.433,239.904 192.766,240.237 190.5,242.5C 189.185,243.476 187.852,244.476 186.5,245.5C 186.167,245.167 185.833,244.833 185.5,244.5C 186.919,242.664 188.086,240.664 189,238.5C 197.818,230.225 208.318,226.892 220.5,228.5C 225.222,228.508 229.555,229.175 233.5,230.5 Z"/></g>
<g><path style="opacity:0.004" fill="#fefffe" d="M 411.5,241.5 C 412.833,242.167 412.833,242.167 411.5,241.5 Z"/></g>
<g><path style="opacity:1" fill="#789a08" d="M 280.5,209.5 C 280.5,212.5 280.5,215.5 280.5,218.5C 283.346,218.552 285.68,219.552 287.5,221.5C 286.957,221.56 286.624,221.893 286.5,222.5C 288.947,230.772 289.114,239.105 287,247.5C 284.528,249.298 282.861,251.632 282,254.5C 281.195,252.099 280.362,252.266 279.5,255C 276.405,255.818 274.405,257.818 273.5,261C 271.385,261.557 269.385,262.391 267.5,263.5C 262.915,259.901 258.082,256.567 253,253.5C 252.056,250.539 250.89,247.706 249.5,245C 250.483,242.85 251.816,241.017 253.5,239.5C 259.883,238.059 265.717,235.392 271,231.5C 276.139,224.902 279.305,217.569 280.5,209.5 Z"/></g>
<g><path style="opacity:1" fill="#4e830d" d="M 339.5,211.5 C 346.581,214.844 348.248,220.011 344.5,227C 346.484,231.723 345.15,235.056 340.5,237C 340.833,237.333 341.167,237.667 341.5,238C 339.785,238.777 338.785,240.11 338.5,242C 338.276,246.968 337.276,251.634 335.5,256C 336.833,257 336.833,258 335.5,259C 337.646,259.479 338.646,260.812 338.5,263C 337.923,265.657 336.923,268.157 335.5,270.5C 336.762,273.28 335.762,274.946 332.5,275.5C 332.901,277.434 333.901,278.934 335.5,280C 334.4,281.023 333.067,281.523 331.5,281.5C 328.929,280.599 326.596,279.266 324.5,277.5C 324.167,277.833 323.833,278.167 323.5,278.5C 326.281,281.736 329.281,284.736 332.5,287.5C 333.386,288.325 333.719,289.325 333.5,290.5C 330.044,288.217 326.71,285.717 323.5,283C 321.854,281.445 321.521,279.779 322.5,278C 320.833,277 319.167,276 317.5,275C 319.089,272.251 320.589,269.084 322,265.5C 324.304,263.569 326.138,261.236 327.5,258.5C 326.045,256.78 325.212,254.78 325,252.5C 324.667,253.167 324.333,253.833 324,254.5C 323.764,249.235 326.264,246.235 331.5,245.5C 331.34,243.801 331.506,242.134 332,240.5C 334.176,240.012 336.009,239.012 337.5,237.5C 336.261,235.689 335.594,233.689 335.5,231.5C 336.981,226.984 338.147,222.317 339,217.5C 340.399,216.773 341.899,216.273 343.5,216C 342.069,215.535 340.903,214.701 340,213.5C 339.385,215.116 338.385,216.449 337,217.5C 336.886,214.826 336.386,212.326 335.5,210C 336,209.5 336.5,209 337,208.5C 337.377,209.942 338.21,210.942 339.5,211.5 Z"/></g>
<g><path style="opacity:1" fill="#5e8e0d" d="M 216.5,238.5 C 214.171,242.469 211.837,246.469 209.5,250.5C 207.214,255.135 203.547,257.135 198.5,256.5C 197.833,256.167 197.167,255.833 196.5,255.5C 194.445,251.826 193.278,247.826 193,243.5C 192.329,242.748 191.496,242.414 190.5,242.5C 192.766,240.237 195.433,239.904 198.5,241.5C 202.682,237.17 205.849,237.837 208,243.5C 209.896,240.236 212.729,238.569 216.5,238.5 Z"/></g>
<g><path style="opacity:1" fill="#0c5132" d="M 130.5,230.5 C 134.218,231.238 136.051,233.571 136,237.5C 140.5,242 145,246.5 149.5,251C 166.929,259.668 175.929,273.834 176.5,293.5C 176.674,298.021 176.007,298.355 174.5,294.5C 173.349,293.269 172.183,293.269 171,294.5C 169.625,292.023 167.791,291.189 165.5,292C 163.981,290.649 162.648,289.149 161.5,287.5C 160.573,289.113 159.739,290.779 159,292.5C 157.903,289.735 155.903,288.069 153,287.5C 152.728,282.411 150.228,279.411 145.5,278.5C 134.094,264.611 129.094,248.611 130.5,230.5 Z"/></g>
<g><path style="opacity:1" fill="#185a2d" d="M 196.5,255.5 C 197.167,255.833 197.833,256.167 198.5,256.5C 199.23,257.712 200.23,258.712 201.5,259.5C 210.211,260.292 218.877,260.626 227.5,260.5C 227.49,265.134 229.49,268.467 233.5,270.5C 235.937,274.459 237.937,278.792 239.5,283.5C 244.68,289.26 251.013,293.26 258.5,295.5C 258.801,301.511 259.301,307.511 260,313.5C 262.543,315.342 264.71,317.509 266.5,320C 268.134,320.494 269.801,320.66 271.5,320.5C 271.5,320.833 271.5,321.167 271.5,321.5C 262.914,322.256 258.247,318.256 257.5,309.5C 255.463,306.637 252.796,304.47 249.5,303C 251.211,301.867 251.711,300.367 251,298.5C 248.895,299.311 246.895,300.311 245,301.5C 238.402,299.626 231.902,297.292 225.5,294.5C 223.438,292.908 223.105,291.075 224.5,289C 223.437,287.812 222.103,287.312 220.5,287.5C 220.785,285.712 220.452,284.045 219.5,282.5C 218.16,283.867 216.827,285.2 215.5,286.5C 213.421,282.183 212.254,277.516 212,272.5C 210.956,273.623 210.29,274.956 210,276.5C 209.003,281.486 208.169,286.486 207.5,291.5C 206.566,296.986 205.899,302.653 205.5,308.5C 201.471,319.218 199.637,330.218 200,341.5C 199.586,341.957 199.086,342.291 198.5,342.5C 197.15,341.05 195.484,340.383 193.5,340.5C 191.922,333.544 190.589,326.544 189.5,319.5C 190.496,319.414 191.329,319.748 192,320.5C 192.17,322.715 192.837,324.715 194,326.5C 194.317,324.699 194.984,324.366 196,325.5C 196.981,319.201 199.315,313.534 203,308.5C 204.455,301.556 204.788,294.556 204,287.5C 203.589,283.77 202.256,280.436 200,277.5C 195.102,273.238 189.935,269.238 184.5,265.5C 184.167,264.833 183.833,264.167 183.5,263.5C 182.167,262.067 180.667,260.733 179,259.5C 178.601,259.728 178.435,260.062 178.5,260.5C 177.596,259.791 177.263,258.791 177.5,257.5C 178.15,257.804 178.817,258.137 179.5,258.5C 180.82,256.014 182.653,254.014 185,252.5C 184.807,250.918 183.974,249.584 182.5,248.5C 185.01,248.946 187.01,248.28 188.5,246.5C 189.255,244.534 190.421,244.2 192,245.5C 191.738,249.742 193.238,253.075 196.5,255.5 Z"/></g>
<g><path style="opacity:1" fill="#4f830e" d="M 303.5,238.5 C 305.184,241.707 306.184,245.207 306.5,249C 303.111,256.345 302.778,263.845 305.5,271.5C 302.445,272.036 299.445,272.869 296.5,274C 294.555,276.71 291.888,278.21 288.5,278.5C 283.235,281.431 278.235,284.765 273.5,288.5C 271.193,292.656 270.86,296.99 272.5,301.5C 267.841,296.543 265.508,290.543 265.5,283.5C 264.479,284.901 263.479,286.235 262.5,287.5C 260.868,284.812 258.868,282.312 256.5,280C 253.387,278.583 250.387,277.083 247.5,275.5C 251.986,276.622 256.319,278.289 260.5,280.5C 262.415,278.929 263.415,276.929 263.5,274.5C 266.866,274.788 270.2,274.954 273.5,275C 278.099,271.479 281.765,267.145 284.5,262C 285.448,261.517 286.448,261.351 287.5,261.5C 288.725,256.83 290.725,252.497 293.5,248.5C 294.318,245.893 294.818,243.226 295,240.5C 295.75,239.874 296.584,239.374 297.5,239C 296.483,237.951 296.316,236.784 297,235.5C 299.183,236.232 301.349,237.232 303.5,238.5 Z"/></g>
<g><path style="opacity:1" fill="#5d8b0c" d="M 287.5,221.5 C 290.789,223.771 294.122,226.105 297.5,228.5C 299.119,230.958 300.952,233.291 303,235.5C 303.483,236.448 303.649,237.448 303.5,238.5C 301.349,237.232 299.183,236.232 297,235.5C 296.316,236.784 296.483,237.951 297.5,239C 296.584,239.374 295.75,239.874 295,240.5C 294.818,243.226 294.318,245.893 293.5,248.5C 290.725,252.497 288.725,256.83 287.5,261.5C 286.448,261.351 285.448,261.517 284.5,262C 281.765,267.145 278.099,271.479 273.5,275C 270.2,274.954 266.866,274.788 263.5,274.5C 263.415,276.929 262.415,278.929 260.5,280.5C 256.319,278.289 251.986,276.622 247.5,275.5C 242.625,274.395 237.958,272.728 233.5,270.5C 231.966,267.788 230.633,264.954 229.5,262C 229.833,260.833 230.167,259.667 230.5,258.5C 240.519,255.814 246.853,249.481 249.5,239.5C 250.833,239.5 252.167,239.5 253.5,239.5C 251.816,241.017 250.483,242.85 249.5,245C 250.89,247.706 252.056,250.539 253,253.5C 258.082,256.567 262.915,259.901 267.5,263.5C 269.385,262.391 271.385,261.557 273.5,261C 274.405,257.818 276.405,255.818 279.5,255C 280.362,252.266 281.195,252.099 282,254.5C 282.861,251.632 284.528,249.298 287,247.5C 289.114,239.105 288.947,230.772 286.5,222.5C 286.624,221.893 286.957,221.56 287.5,221.5 Z"/></g>
<g><path style="opacity:0.004" fill="#fefffe" d="M 480.5,264.5 C 481.833,265.167 481.833,265.167 480.5,264.5 Z"/></g>
<g><path style="opacity:0.004" fill="#fefffe" d="M 6.5,268.5 C 7.83333,269.167 7.83333,269.167 6.5,268.5 Z"/></g>
<g><path style="opacity:1" fill="#488121" d="M 183.5,263.5 C 183.833,264.167 184.167,264.833 184.5,265.5C 185.048,267.394 186.048,269.06 187.5,270.5C 190.187,273.683 193.353,276.349 197,278.5C 197.584,281.257 197.25,283.923 196,286.5C 195.667,285.5 195.333,284.5 195,283.5C 194.727,285.101 194.227,286.601 193.5,288C 194.939,288.991 195.939,290.324 196.5,292C 195.577,294.041 195.244,296.208 195.5,298.5C 191.776,297.773 189.109,299.106 187.5,302.5C 183.218,289.861 180.884,276.861 180.5,263.5C 181.5,263.5 182.5,263.5 183.5,263.5 Z"/></g>
<g><path style="opacity:0.004" fill="#fefffe" d="M 12.5,274.5 C 13.8333,275.167 13.8333,275.167 12.5,274.5 Z"/></g>
<g><path style="opacity:0.004" fill="#fefffe" d="M 459.5,279.5 C 460.833,280.167 460.833,280.167 459.5,279.5 Z"/></g>
<g><path style="opacity:1" fill="#316b1d" d="M 346.5,255.5 C 344.552,260.399 342.885,265.399 341.5,270.5C 342.194,273.088 343.36,275.421 345,277.5C 347.998,279.333 350.498,281.666 352.5,284.5C 352.5,290.833 352.5,297.167 352.5,303.5C 351.5,303.5 350.5,303.5 349.5,303.5C 349.666,299.486 349.499,295.486 349,291.5C 345.909,286.986 342.575,282.653 339,278.5C 338.788,275.242 338.288,272.076 337.5,269C 339.099,267.214 339.933,265.047 340,262.5C 342.423,260.22 344.59,257.887 346.5,255.5 Z"/></g>
<g><path style="opacity:1" fill="#457c14" d="M 339.5,207.5 C 351.57,218.293 355.404,231.626 351,247.5C 349.768,250.412 348.268,253.078 346.5,255.5C 344.59,257.887 342.423,260.22 340,262.5C 339.933,265.047 339.099,267.214 337.5,269C 338.288,272.076 338.788,275.242 339,278.5C 342.575,282.653 345.909,286.986 349,291.5C 349.499,295.486 349.666,299.486 349.5,303.5C 350.5,303.5 351.5,303.5 352.5,303.5C 352.5,297.167 352.5,290.833 352.5,284.5C 356.159,287.789 359.826,291.122 363.5,294.5C 365.298,297.345 366.298,300.511 366.5,304C 366.875,310.136 364.208,312.303 358.5,310.5C 356.841,309.183 355.674,307.517 355,305.5C 354.329,306.252 353.496,306.586 352.5,306.5C 351.849,305.909 351.182,305.243 350.5,304.5C 349.833,307.642 349.166,310.642 348.5,313.5C 347.5,313.5 346.5,313.5 345.5,313.5C 345.167,315.5 344.833,317.5 344.5,319.5C 341.972,320.011 339.472,320.678 337,321.5C 335.158,319.84 332.991,318.84 330.5,318.5C 330.338,316.473 330.505,314.473 331,312.5C 333.698,311.72 336.031,310.387 338,308.5C 338.941,306.011 338.441,304.011 336.5,302.5C 336.5,302.167 336.5,301.833 336.5,301.5C 337.097,301.265 337.43,300.765 337.5,300C 336.382,296.629 335.049,293.462 333.5,290.5C 333.719,289.325 333.386,288.325 332.5,287.5C 329.281,284.736 326.281,281.736 323.5,278.5C 323.833,278.167 324.167,277.833 324.5,277.5C 326.596,279.266 328.929,280.599 331.5,281.5C 333.067,281.523 334.4,281.023 335.5,280C 333.901,278.934 332.901,277.434 332.5,275.5C 335.762,274.946 336.762,273.28 335.5,270.5C 336.923,268.157 337.923,265.657 338.5,263C 338.646,260.812 337.646,259.479 335.5,259C 336.833,258 336.833,257 335.5,256C 337.276,251.634 338.276,246.968 338.5,242C 338.785,240.11 339.785,238.777 341.5,238C 341.167,237.667 340.833,237.333 340.5,237C 345.15,235.056 346.484,231.723 344.5,227C 348.248,220.011 346.581,214.844 339.5,211.5C 339.5,210.167 339.5,208.833 339.5,207.5 Z"/></g>
<g><path style="opacity:1" fill="#0e4d34" d="M 145.5,278.5 C 150.228,279.411 152.728,282.411 153,287.5C 155.903,288.069 157.903,289.735 159,292.5C 159.739,290.779 160.573,289.113 161.5,287.5C 162.648,289.149 163.981,290.649 165.5,292C 167.791,291.189 169.625,292.023 171,294.5C 172.183,293.269 173.349,293.269 174.5,294.5C 176.007,298.355 176.674,298.021 176.5,293.5C 177.152,294.449 177.486,295.615 177.5,297C 176.426,306.144 175.593,315.31 175,324.5C 172.922,327.87 172.089,331.537 172.5,335.5C 171.167,335.5 169.833,335.5 168.5,335.5C 168.337,337.857 168.503,340.19 169,342.5C 170.825,343.103 172.659,343.77 174.5,344.5C 173.757,345.182 173.091,345.849 172.5,346.5C 166.871,345.377 164.704,342.044 166,336.5C 167.908,335.182 168.742,333.348 168.5,331C 166.617,322.348 164.117,313.848 161,305.5C 155.29,296.739 150.124,287.739 145.5,278.5 Z"/></g>
<g><path style="opacity:1" fill="#3e7827" d="M 183.5,263.5 C 182.5,263.5 181.5,263.5 180.5,263.5C 180.884,276.861 183.218,289.861 187.5,302.5C 189.109,299.106 191.776,297.773 195.5,298.5C 195.244,296.208 195.577,294.041 196.5,292C 195.939,290.324 194.939,288.991 193.5,288C 194.227,286.601 194.727,285.101 195,283.5C 195.333,284.5 195.667,285.5 196,286.5C 197.25,283.923 197.584,281.257 197,278.5C 193.353,276.349 190.187,273.683 187.5,270.5C 186.048,269.06 185.048,267.394 184.5,265.5C 189.935,269.238 195.102,273.238 200,277.5C 202.256,280.436 203.589,283.77 204,287.5C 204.788,294.556 204.455,301.556 203,308.5C 199.315,313.534 196.981,319.201 196,325.5C 194.984,324.366 194.317,324.699 194,326.5C 192.837,324.715 192.17,322.715 192,320.5C 191.329,319.748 190.496,319.414 189.5,319.5C 183.645,300.228 179.979,280.562 178.5,260.5C 178.435,260.062 178.601,259.728 179,259.5C 180.667,260.733 182.167,262.067 183.5,263.5 Z"/></g>
<g><path style="opacity:1" fill="#105430" d="M 271.5,321.5 C 272.167,321.5 272.5,321.833 272.5,322.5C 272.722,326.842 271.389,330.509 268.5,333.5C 267.504,333.586 266.671,333.252 266,332.5C 263.847,335.124 261.013,336.124 257.5,335.5C 258.303,334.577 258.47,333.577 258,332.5C 254.167,328.667 250.333,324.833 246.5,321C 240.956,319.596 235.29,319.096 229.5,319.5C 232.212,318.641 234.878,317.475 237.5,316C 231.368,312.201 226.201,307.368 222,301.5C 219.282,296.731 217.115,291.731 215.5,286.5C 216.827,285.2 218.16,283.867 219.5,282.5C 220.452,284.045 220.785,285.712 220.5,287.5C 222.103,287.312 223.437,287.812 224.5,289C 223.105,291.075 223.438,292.908 225.5,294.5C 231.902,297.292 238.402,299.626 245,301.5C 246.895,300.311 248.895,299.311 251,298.5C 251.711,300.367 251.211,301.867 249.5,303C 252.796,304.47 255.463,306.637 257.5,309.5C 258.247,318.256 262.914,322.256 271.5,321.5 Z"/></g>
<g><path style="opacity:1" fill="#0b381b" d="M 215.5,286.5 C 217.115,291.731 219.282,296.731 222,301.5C 226.201,307.368 231.368,312.201 237.5,316C 234.878,317.475 232.212,318.641 229.5,319.5C 226.769,321.071 224.935,323.405 224,326.5C 223.95,330.157 223.117,333.49 221.5,336.5C 219.5,336.5 217.5,336.5 215.5,336.5C 214.676,332.688 214.176,328.688 214,324.5C 209.728,313.973 207.561,302.973 207.5,291.5C 208.169,286.486 209.003,281.486 210,276.5C 210.29,274.956 210.956,273.623 212,272.5C 212.254,277.516 213.421,282.183 215.5,286.5 Z"/></g>
<g><path style="opacity:1" fill="#15411c" d="M 131.5,215.5 C 131.351,216.552 131.517,217.552 132,218.5C 139.332,225.952 146.832,233.285 154.5,240.5C 155.04,241.748 155.707,242.915 156.5,244C 159.417,245.528 162.417,246.861 165.5,248C 168.819,252.167 172.819,255.333 177.5,257.5C 177.263,258.791 177.596,259.791 178.5,260.5C 179.979,280.562 183.645,300.228 189.5,319.5C 190.589,326.544 191.922,333.544 193.5,340.5C 193.5,340.833 193.5,341.167 193.5,341.5C 192.212,345.282 189.545,347.449 185.5,348C 181.045,348.578 176.712,348.078 172.5,346.5C 173.091,345.849 173.757,345.182 174.5,344.5C 172.659,343.77 170.825,343.103 169,342.5C 168.503,340.19 168.337,337.857 168.5,335.5C 169.833,335.5 171.167,335.5 172.5,335.5C 172.089,331.537 172.922,327.87 175,324.5C 175.593,315.31 176.426,306.144 177.5,297C 177.486,295.615 177.152,294.449 176.5,293.5C 175.929,273.834 166.929,259.668 149.5,251C 145,246.5 140.5,242 136,237.5C 136.051,233.571 134.218,231.238 130.5,230.5C 130.5,228.833 130.5,227.167 130.5,225.5C 130.216,223.123 130.216,220.956 130.5,219C 129.833,218.667 129.167,218.333 128.5,218C 129.641,217.259 129.641,216.425 128.5,215.5C 129.425,214.438 130.425,214.438 131.5,215.5 Z"/></g>
<g><path style="opacity:0.004" fill="#fefffe" d="M 448.5,306.5 C 449.833,307.167 449.833,307.167 448.5,306.5 Z"/></g>
<g><path style="opacity:0.004" fill="#fefffe" d="M 407.5,308.5 C 408.833,309.167 408.833,309.167 407.5,308.5 Z"/></g>
<g><path style="opacity:1" fill="#3b7814" d="M 233.5,270.5 C 237.958,272.728 242.625,274.395 247.5,275.5C 250.387,277.083 253.387,278.583 256.5,280C 258.868,282.312 260.868,284.812 262.5,287.5C 258.501,296.325 260.501,303.492 268.5,309C 270.134,309.494 271.801,309.66 273.5,309.5C 273.599,306.763 273.265,304.096 272.5,301.5C 270.86,296.99 271.193,292.656 273.5,288.5C 278.235,284.765 283.235,281.431 288.5,278.5C 287.236,280.935 285.403,282.935 283,284.5C 282.543,287.796 281.709,290.963 280.5,294C 281.337,295.011 281.67,296.178 281.5,297.5C 282.873,297.343 284.207,297.51 285.5,298C 286.13,299.892 287.13,301.559 288.5,303C 287.167,303.333 285.833,303.667 284.5,304C 287.419,305.334 290.252,306.834 293,308.5C 294.32,312.302 295.487,316.135 296.5,320C 296.219,323.79 294.219,326.29 290.5,327.5C 288.885,326.846 287.218,326.346 285.5,326C 284.663,324.989 284.33,323.822 284.5,322.5C 286.39,322.297 287.89,322.963 289,324.5C 289.494,322.866 289.66,321.199 289.5,319.5C 284.306,319.584 283.306,317.584 286.5,313.5C 283.855,312.808 281.355,311.808 279,310.5C 279.688,316.095 277.188,319.429 271.5,320.5C 269.801,320.66 268.134,320.494 266.5,320C 264.71,317.509 262.543,315.342 260,313.5C 259.301,307.511 258.801,301.511 258.5,295.5C 251.013,293.26 244.68,289.26 239.5,283.5C 237.937,278.792 235.937,274.459 233.5,270.5 Z"/></g>
<g><path style="opacity:1" fill="#6f970d" d="M 272.5,301.5 C 273.265,304.096 273.599,306.763 273.5,309.5C 271.801,309.66 270.134,309.494 268.5,309C 260.501,303.492 258.501,296.325 262.5,287.5C 263.479,286.235 264.479,284.901 265.5,283.5C 265.508,290.543 267.841,296.543 272.5,301.5 Z"/></g>
<g><path style="opacity:1" fill="#3f6e2e" d="M 336.5,302.5 C 338.441,304.011 338.941,306.011 338,308.5C 336.031,310.387 333.698,311.72 331,312.5C 330.505,314.473 330.338,316.473 330.5,318.5C 332.991,318.84 335.158,319.84 337,321.5C 339.472,320.678 341.972,320.011 344.5,319.5C 344.833,317.5 345.167,315.5 345.5,313.5C 346.5,313.5 347.5,313.5 348.5,313.5C 347.935,317.799 345.602,320.632 341.5,322C 333.922,324.478 328.922,322.145 326.5,315C 327.516,309.486 330.85,306.653 336.5,306.5C 336.5,305.167 336.5,303.833 336.5,302.5 Z"/></g>
<g><path style="opacity:0.361" fill="#748f49" d="M 363.5,294.5 C 369.341,298.543 370.841,303.876 368,310.5C 361.431,314.979 356.264,313.646 352.5,306.5C 353.496,306.586 354.329,306.252 355,305.5C 355.674,307.517 356.841,309.183 358.5,310.5C 364.208,312.303 366.875,310.136 366.5,304C 366.298,300.511 365.298,297.345 363.5,294.5 Z"/></g>
<g><path style="opacity:1" fill="#094c33" d="M 207.5,291.5 C 207.561,302.973 209.728,313.973 214,324.5C 214.176,328.688 214.676,332.688 215.5,336.5C 210.352,347.582 203.019,349.248 193.5,341.5C 193.5,341.167 193.5,340.833 193.5,340.5C 195.484,340.383 197.15,341.05 198.5,342.5C 199.086,342.291 199.586,341.957 200,341.5C 199.637,330.218 201.471,319.218 205.5,308.5C 205.899,302.653 206.566,296.986 207.5,291.5 Z"/></g>
<g><path style="opacity:0.004" fill="#fefffe" d="M 82.5,324.5 C 83.8333,325.167 83.8333,325.167 82.5,324.5 Z"/></g>
<g><path style="opacity:0.004" fill="#fefffe" d="M 117.5,325.5 C 118.833,326.167 118.833,326.167 117.5,325.5 Z"/></g>
<g><path style="opacity:1" fill="#437329" d="M 305.5,271.5 C 309.593,275.929 314.259,279.596 319.5,282.5C 320.812,284.479 322.479,286.145 324.5,287.5C 324.376,288.107 324.043,288.44 323.5,288.5C 318.09,286.974 312.756,285.141 307.5,283C 304.48,280.977 302.146,278.31 300.5,275C 292.313,277.853 286.647,283.519 283.5,292C 285.667,293.5 287.5,295.333 289,297.5C 292.97,305.224 296.47,313.224 299.5,321.5C 297.191,330.153 291.858,332.653 283.5,329C 279.965,326.162 279.632,322.995 282.5,319.5C 282.081,318.328 281.415,317.328 280.5,316.5C 278.557,319.471 275.891,321.471 272.5,322.5C 272.5,321.833 272.167,321.5 271.5,321.5C 271.5,321.167 271.5,320.833 271.5,320.5C 277.188,319.429 279.688,316.095 279,310.5C 281.355,311.808 283.855,312.808 286.5,313.5C 283.306,317.584 284.306,319.584 289.5,319.5C 289.66,321.199 289.494,322.866 289,324.5C 287.89,322.963 286.39,322.297 284.5,322.5C 284.33,323.822 284.663,324.989 285.5,326C 287.218,326.346 288.885,326.846 290.5,327.5C 294.219,326.29 296.219,323.79 296.5,320C 295.487,316.135 294.32,312.302 293,308.5C 290.252,306.834 287.419,305.334 284.5,304C 285.833,303.667 287.167,303.333 288.5,303C 287.13,301.559 286.13,299.892 285.5,298C 284.207,297.51 282.873,297.343 281.5,297.5C 281.67,296.178 281.337,295.011 280.5,294C 281.709,290.963 282.543,287.796 283,284.5C 285.403,282.935 287.236,280.935 288.5,278.5C 291.888,278.21 294.555,276.71 296.5,274C 299.445,272.869 302.445,272.036 305.5,271.5 Z"/></g>
<g><path style="opacity:1" fill="#3d7827" d="M 229.5,319.5 C 235.29,319.096 240.956,319.596 246.5,321C 250.333,324.833 254.167,328.667 258,332.5C 258.47,333.577 258.303,334.577 257.5,335.5C 246.289,335.739 235.289,336.073 224.5,336.5C 223.5,336.5 222.5,336.5 221.5,336.5C 223.117,333.49 223.95,330.157 224,326.5C 224.935,323.405 226.769,321.071 229.5,319.5 Z"/></g>
<g><path style="opacity:0.004" fill="#fefffe" d="M 349.5,328.5 C 350.833,329.167 350.833,329.167 349.5,328.5 Z"/></g>
<g><path style="opacity:0.845" fill="#487242" d="M 268.5,333.5 C 266.266,335.446 263.599,336.613 260.5,337C 248.394,338.956 236.394,338.789 224.5,336.5C 235.289,336.073 246.289,335.739 257.5,335.5C 261.013,336.124 263.847,335.124 266,332.5C 266.671,333.252 267.504,333.586 268.5,333.5 Z"/></g>
<g><path style="opacity:0.004" fill="#fefffe" d="M 365.5,337.5 C 366.833,338.167 366.833,338.167 365.5,337.5 Z"/></g>
<g><path style="opacity:0.004" fill="#fefffe" d="M 345.5,349.5 C 346.833,350.167 346.833,350.167 345.5,349.5 Z"/></g>
<g><path style="opacity:0.004" fill="#fefffe" d="M 364.5,351.5 C 365.833,352.167 365.833,352.167 364.5,351.5 Z"/></g>
<g><path style="opacity:0.004" fill="#fefffe" d="M 264.5,352.5 C 265.833,353.167 265.833,353.167 264.5,352.5 Z"/></g>
<g><path style="opacity:0.004" fill="#fefffe" d="M 101.5,353.5 C 102.833,354.167 102.833,354.167 101.5,353.5 Z"/></g>
<g><path style="opacity:0.004" fill="#fefffe" d="M 65.5,360.5 C 66.8333,361.167 66.8333,361.167 65.5,360.5 Z"/></g>
<g><path style="opacity:0.004" fill="#fefffe" d="M 158.5,371.5 C 159.833,372.167 159.833,372.167 158.5,371.5 Z"/></g>
<g><path style="opacity:1" fill="#43792d" d="M 54.5,373.5 C 57.9986,379.317 57.6653,385.15 53.5,391C 44.6214,389.505 36.1214,390.672 28,394.5C 27.0248,399.876 25.8582,405.209 24.5,410.5C 25.2095,414.804 25.7095,419.137 26,423.5C 27.517,425.24 29.017,426.906 30.5,428.5C 31.6002,429.558 32.9336,430.392 34.5,431C 33.8333,431.667 33.1667,432.333 32.5,433C 34.9316,434.095 37.0982,435.595 39,437.5C 41.7695,438.348 44.6029,438.681 47.5,438.5C 47.5,437.5 47.5,436.5 47.5,435.5C 52.3958,436.287 52.7291,437.954 48.5,440.5C 47.596,441.209 47.2627,442.209 47.5,443.5C 44.5525,443.777 41.7191,443.444 39,442.5C 38.3985,446.274 36.2319,447.94 32.5,447.5C 30.4712,447.33 28.4712,446.996 26.5,446.5C 23.0959,444.254 19.4292,442.588 15.5,441.5C 14.8333,441.5 14.5,441.167 14.5,440.5C 16.0876,439.359 17.4209,437.859 18.5,436C 17.1667,435.667 15.8333,435.333 14.5,435C 13.9415,434.275 13.6082,433.442 13.5,432.5C 12.9913,428.057 13.658,424.391 15.5,421.5C 15.0912,417.616 14.0912,413.95 12.5,410.5C 12.7896,408.956 13.4563,407.623 14.5,406.5C 13.1667,404.5 13.1667,402.5 14.5,400.5C 13.6798,398.889 12.3464,398.222 10.5,398.5C 12.2282,392.451 14.0616,386.451 16,380.5C 20.5048,379.501 23.6715,376.834 25.5,372.5C 28.6999,371.2 32.0333,370.534 35.5,370.5C 40.5,371 45.5,371.5 50.5,372C 51.5665,374.012 52.8998,374.512 54.5,373.5 Z"/></g>
<g><path style="opacity:1" fill="#183b2a" d="M 320.5,425.5 C 318.321,425.16 316.488,424.16 315,422.5C 312.982,417.186 311.816,411.686 311.5,406C 311.586,402.241 312.586,398.741 314.5,395.5C 313.391,394.035 313.891,393.035 316,392.5C 316.98,389.102 318.146,385.769 319.5,382.5C 316.965,381.497 314.798,382.163 313,384.5C 310.74,388.54 309.573,392.873 309.5,397.5C 307.43,397.551 305.597,396.885 304,395.5C 302.739,395.759 301.739,396.426 301,397.5C 300.833,397.167 300.667,396.833 300.5,396.5C 303.438,392.293 304.105,387.959 302.5,383.5C 301.594,385.386 300.594,387.22 299.5,389C 298.552,389.483 297.552,389.649 296.5,389.5C 305.882,372.477 320.216,365.644 339.5,369C 350.462,373.766 354.962,381.932 353,393.5C 349.267,398.155 344.433,399.655 338.5,398C 330.69,386.499 323.19,386.666 316,398.5C 311.621,408.548 313.121,417.548 320.5,425.5 Z"/></g>
<g><path style="opacity:0.004" fill="#fefffe" d="M 189.5,375.5 C 190.833,376.167 190.833,376.167 189.5,375.5 Z"/></g>
<g><path style="opacity:1" fill="#133a27" d="M 437.5,375.5 C 436.514,379.111 435.681,382.778 435,386.5C 438.603,388.123 442.436,389.29 446.5,390C 445.978,390.561 445.645,391.228 445.5,392C 447.645,395.494 447.978,399.16 446.5,403C 444.226,402.613 442.059,402.446 440,402.5C 437.16,404.501 435.327,407.168 434.5,410.5C 435.964,414.863 436.631,419.363 436.5,424C 435.905,431.491 435.572,438.991 435.5,446.5C 432.303,444.959 429.969,445.959 428.5,449.5C 425.444,448.917 422.11,448.25 418.5,447.5C 419.509,433.514 419.676,419.514 419,405.5C 417.806,403.475 416.306,403.141 414.5,404.5C 412.453,403.815 410.786,402.649 409.5,401C 410.022,400.05 410.689,399.216 411.5,398.5C 410.276,396.161 410.276,393.828 411.5,391.5C 415.653,391.723 418.653,389.723 420.5,385.5C 419.96,384.252 419.293,383.085 418.5,382C 419.288,378.924 419.788,375.758 420,372.5C 421.016,371.366 421.683,371.699 422,373.5C 426.686,371.005 426.186,370.005 420.5,370.5C 425.698,367.87 431.031,367.87 436.5,370.5C 437.452,372.045 437.785,373.712 437.5,375.5 Z"/></g>
<g><path style="opacity:0.004" fill="#fefffe" d="M 79.5,383.5 C 80.8333,384.167 80.8333,384.167 79.5,383.5 Z"/></g>
<g><path style="opacity:0.004" fill="#fefffe" d="M 268.5,385.5 C 269.833,386.167 269.833,386.167 268.5,385.5 Z"/></g>
<g><path style="opacity:0.016" fill="#a1a3a3" d="M 417.5,373.5 C 417.5,378.167 417.5,382.833 417.5,387.5C 415.167,387.5 412.833,387.5 410.5,387.5C 412.265,386.539 414.265,386.205 416.5,386.5C 416.182,381.968 416.515,377.634 417.5,373.5 Z"/></g>
<g><path style="opacity:0.004" fill="#fefffe" d="M 63.5,387.5 C 64.8333,388.167 64.8333,388.167 63.5,387.5 Z"/></g>
<g><path style="opacity:0.988" fill="#5e814e" d="M 266.5,398.5 C 264.215,396.395 261.548,394.895 258.5,394C 252.755,393.434 247.088,393.934 241.5,395.5C 239.892,393.738 237.892,392.572 235.5,392C 231.848,391.501 228.182,391.335 224.5,391.5C 229.29,389.043 234.29,388.876 239.5,391C 240.701,391.903 241.535,393.069 242,394.5C 248.573,389.954 255.406,389.454 262.5,393C 264.076,394.73 265.41,396.563 266.5,398.5 Z"/></g>
<g><path style="opacity:1" fill="#44792e" d="M 224.5,391.5 C 228.182,391.335 231.848,391.501 235.5,392C 237.892,392.572 239.892,393.738 241.5,395.5C 247.088,393.934 252.755,393.434 258.5,394C 261.548,394.895 264.215,396.395 266.5,398.5C 266.837,404.019 268.004,409.352 270,414.5C 270.5,425.161 270.667,435.828 270.5,446.5C 265.698,448.052 261.031,447.719 256.5,445.5C 254.183,439.997 253.85,434.33 255.5,428.5C 254.338,423.872 253.338,419.206 252.5,414.5C 249.263,408.784 245.263,408.118 240.5,412.5C 239.501,423.814 239.168,435.147 239.5,446.5C 238.486,447.674 237.153,448.34 235.5,448.5C 231.818,448.665 228.152,448.499 224.5,448C 222.667,447.5 221.5,446.333 221,444.5C 220.665,427.568 220.499,410.568 220.5,393.5C 221.514,392.326 222.847,391.66 224.5,391.5 Z"/></g>
<g><path style="opacity:1" fill="#143a27" d="M 407.5,442.5 C 407.5,443.167 407.5,443.833 407.5,444.5C 406.883,444.389 406.383,444.056 406,443.5C 404.103,445.665 401.936,446.332 399.5,445.5C 399.709,444.914 400.043,444.414 400.5,444C 399.957,440.509 398.957,437.175 397.5,434C 397.645,433.228 397.978,432.561 398.5,432C 396.167,431.667 393.833,431.333 391.5,431C 390.809,429.933 390.309,428.766 390,427.5C 389.686,429.869 388.852,432.036 387.5,434C 388.022,434.95 388.689,435.784 389.5,436.5C 385.466,437.117 382.133,438.951 379.5,442C 375.384,444.416 371.718,443.916 368.5,440.5C 367.707,440.931 366.873,441.265 366,441.5C 362.397,438.061 359.897,433.895 358.5,429C 359.784,425.936 359.451,423.102 357.5,420.5C 358.945,413.273 361.778,406.606 366,400.5C 371.376,395.205 377.876,392.539 385.5,392.5C 386.496,392.414 387.329,392.748 388,393.5C 388.777,391.785 390.11,390.785 392,390.5C 395.151,391.093 398.318,391.593 401.5,392C 402.667,392.5 403.5,393.333 404,394.5C 404.637,410.609 405.804,426.609 407.5,442.5 Z M 382.5,411.5 C 383.5,411.5 384.5,411.5 385.5,411.5C 385.829,417.206 385.495,422.872 384.5,428.5C 379.675,429.837 377.341,427.837 377.5,422.5C 377.833,418.17 379.5,414.504 382.5,411.5 Z"/></g>
<g><path style="opacity:1" fill="#173a29" d="M 320.5,425.5 C 322.782,426.39 325.115,426.556 327.5,426C 329.641,424.692 331.641,423.192 333.5,421.5C 336.766,413.547 342.433,411.047 350.5,414C 353.728,415.563 355.895,418.063 357,421.5C 357.399,421.272 357.565,420.938 357.5,420.5C 359.451,423.102 359.784,425.936 358.5,429C 359.897,433.895 362.397,438.061 366,441.5C 366.873,441.265 367.707,440.931 368.5,440.5C 371.718,443.916 375.384,444.416 379.5,442C 382.133,438.951 385.466,437.117 389.5,436.5C 388.689,435.784 388.022,434.95 387.5,434C 388.852,432.036 389.686,429.869 390,427.5C 390.309,428.766 390.809,429.933 391.5,431C 393.833,431.333 396.167,431.667 398.5,432C 397.978,432.561 397.645,433.228 397.5,434C 398.957,437.175 399.957,440.509 400.5,444C 400.043,444.414 399.709,444.914 399.5,445.5C 401.936,446.332 404.103,445.665 406,443.5C 406.383,444.056 406.883,444.389 407.5,444.5C 404.677,448.942 400.51,450.942 395,450.5C 389.952,451.001 386.452,449.001 384.5,444.5C 377.916,448.266 371.249,448.432 364.5,445C 358.58,439.116 355.747,431.949 356,423.5C 351.698,435.283 343.865,443.783 332.5,449C 312.405,451.69 299.572,443.19 294,423.5C 291.408,411.771 292.242,400.438 296.5,389.5C 297.552,389.649 298.552,389.483 299.5,389C 300.594,387.22 301.594,385.386 302.5,383.5C 304.105,387.959 303.438,392.293 300.5,396.5C 300.667,396.833 300.833,397.167 301,397.5C 301.739,396.426 302.739,395.759 304,395.5C 305.597,396.885 307.43,397.551 309.5,397.5C 309.573,392.873 310.74,388.54 313,384.5C 314.798,382.163 316.965,381.497 319.5,382.5C 318.146,385.769 316.98,389.102 316,392.5C 313.891,393.035 313.391,394.035 314.5,395.5C 312.586,398.741 311.586,402.241 311.5,406C 311.816,411.686 312.982,417.186 315,422.5C 316.488,424.16 318.321,425.16 320.5,425.5 Z"/></g>
<g><path style="opacity:0.998" fill="#44792e" d="M 48.5,440.5 C 52.7291,437.954 52.3958,436.287 47.5,435.5C 47.5,436.5 47.5,437.5 47.5,438.5C 44.6029,438.681 41.7695,438.348 39,437.5C 37.0982,435.595 34.9316,434.095 32.5,433C 33.1667,432.333 33.8333,431.667 34.5,431C 32.9336,430.392 31.6002,429.558 30.5,428.5C 31.8333,428.5 33.1667,428.5 34.5,428.5C 38.4219,428.931 41.9219,427.931 45,425.5C 45.6917,424.563 45.525,423.897 44.5,423.5C 42.283,422.631 39.9496,422.298 37.5,422.5C 37.5379,419.819 36.8713,417.319 35.5,415C 35.8829,412.036 36.8829,409.37 38.5,407C 48.0777,406.182 57.5777,406.349 67,407.5C 67.2633,411.909 68.43,415.909 70.5,419.5C 67.8683,427.679 67.0349,436.012 68,444.5C 64.5065,446.377 60.6732,447.044 56.5,446.5C 56.8995,440.222 54.2329,438.222 48.5,440.5 Z"/></g>
<g><path style="opacity:1" fill="#467a30" d="M 85.5,388.5 C 87.7157,389.203 89.549,390.536 91,392.5C 100.289,387.7 107.955,389.7 114,398.5C 115.893,401.618 117.226,404.951 118,408.5C 118.387,405.401 119.554,402.734 121.5,400.5C 119.696,409.357 119.029,418.357 119.5,427.5C 118.674,423.018 118.174,418.351 118,413.5C 112.862,417.788 107.362,418.454 101.5,415.5C 99.1379,411.999 96.3045,411.665 93,414.5C 91.5962,420.044 91.0962,425.71 91.5,431.5C 90.8501,431.804 90.1835,432.137 89.5,432.5C 89.088,438.137 87.4214,443.304 84.5,448C 80.4087,449.227 76.9087,448.394 74,445.5C 74.6314,428.468 74.298,411.468 73,394.5C 74.1667,393.333 75.3333,392.167 76.5,391C 79.7422,390.594 82.7422,389.761 85.5,388.5 Z"/></g>
<g><path style="opacity:0.839" fill="#5b7d49" d="M 207.5,393.5 C 197.609,389.484 187.942,389.651 178.5,394C 176.666,396.203 174.832,398.37 173,400.5C 172.867,403.525 171.867,406.192 170,408.5C 169.829,416.011 169.329,423.345 168.5,430.5C 167.28,440.556 160.946,446.723 149.5,449C 140.576,450.85 132.909,448.683 126.5,442.5C 130.164,442 133.164,443.167 135.5,446C 140.833,446.667 146.167,446.667 151.5,446C 152.09,444.701 153.09,443.868 154.5,443.5C 165.118,441.548 168.452,435.548 164.5,425.5C 165.315,426.429 166.148,427.429 167,428.5C 167.167,428 167.333,427.5 167.5,427C 164.63,412.399 168.63,400.399 179.5,391C 189.561,385.707 198.894,386.541 207.5,393.5 Z"/></g>
<g><path style="opacity:0.69" fill="#5c7e4e" d="M 54.5,373.5 C 57.6609,375.141 59.3276,377.807 59.5,381.5C 59.057,385.884 57.3903,389.717 54.5,393C 31.9781,389.477 23.1447,398.977 28,421.5C 29.6941,424.358 31.8607,426.691 34.5,428.5C 33.1667,428.5 31.8333,428.5 30.5,428.5C 29.017,426.906 27.517,425.24 26,423.5C 25.7095,419.137 25.2095,414.804 24.5,410.5C 25.8582,405.209 27.0248,399.876 28,394.5C 36.1214,390.672 44.6214,389.505 53.5,391C 57.6653,385.15 57.9986,379.317 54.5,373.5 Z"/></g>
<g><path style="opacity:0.004" fill="#fefffe" d="M 3.5,412.5 C 4.83333,413.167 4.83333,413.167 3.5,412.5 Z"/></g>
<g><path style="opacity:1" fill="#4b7938" d="M 54.5,373.5 C 52.8998,374.512 51.5665,374.012 50.5,372C 45.5,371.5 40.5,371 35.5,370.5C 32.0333,370.534 28.6999,371.2 25.5,372.5C 23.6715,376.834 20.5048,379.501 16,380.5C 14.0616,386.451 12.2282,392.451 10.5,398.5C 12.3464,398.222 13.6798,398.889 14.5,400.5C 13.1667,402.5 13.1667,404.5 14.5,406.5C 13.4563,407.623 12.7896,408.956 12.5,410.5C 14.0912,413.95 15.0912,417.616 15.5,421.5C 13.658,424.391 12.9913,428.057 13.5,432.5C 13.6082,433.442 13.9415,434.275 14.5,435C 15.8333,435.333 17.1667,435.667 18.5,436C 17.4209,437.859 16.0876,439.359 14.5,440.5C 8.07702,431.224 5.07702,420.891 5.5,409.5C 5.22416,396.148 9.55749,384.648 18.5,375C 26.1277,368.879 34.7944,366.879 44.5,369C 46.7885,369.822 49.1218,370.489 51.5,371C 52.9423,371.377 53.9423,372.21 54.5,373.5 Z"/></g>
<g><path style="opacity:0.999" fill="#567c45" d="M 85.5,388.5 C 82.7422,389.761 79.7422,390.594 76.5,391C 75.3333,392.167 74.1667,393.333 73,394.5C 74.298,411.468 74.6314,428.468 74,445.5C 76.9087,448.394 80.4087,449.227 84.5,448C 87.4214,443.304 89.088,438.137 89.5,432.5C 90.1835,432.137 90.8501,431.804 91.5,431.5C 94.5627,446.604 88.5627,452.437 73.5,449C 71.2819,445.911 68.9486,445.911 66.5,449C 62.5,449.667 58.5,449.667 54.5,449C 52.6061,447.899 51.9394,446.566 52.5,445C 51.8742,444.25 51.3742,443.416 51,442.5C 40.6315,450.626 29.7982,451.459 18.5,445C 17.2899,443.961 16.2899,442.794 15.5,441.5C 19.4292,442.588 23.0959,444.254 26.5,446.5C 28.4712,446.996 30.4712,447.33 32.5,447.5C 36.2319,447.94 38.3985,446.274 39,442.5C 41.7191,443.444 44.5525,443.777 47.5,443.5C 47.2627,442.209 47.596,441.209 48.5,440.5C 54.2329,438.222 56.8995,440.222 56.5,446.5C 60.6732,447.044 64.5065,446.377 68,444.5C 67.0349,436.012 67.8683,427.679 70.5,419.5C 68.43,415.909 67.2633,411.909 67,407.5C 57.5777,406.349 48.0777,406.182 38.5,407C 36.8829,409.37 35.8829,412.036 35.5,415C 36.8713,417.319 37.5379,419.819 37.5,422.5C 39.9496,422.298 42.283,422.631 44.5,423.5C 41.0148,425.054 37.8482,424.387 35,421.5C 32.4146,415.076 33.2479,409.243 37.5,404C 48.1713,403.623 58.838,403.79 69.5,404.5C 69.3379,406.527 69.5045,408.527 70,410.5C 70.3333,404.5 70.6667,398.5 71,392.5C 75.1111,388.431 79.9444,387.098 85.5,388.5 Z"/></g>
<g><path style="opacity:1" fill="#44792e" d="M 163.5,424.5 C 164.167,424.5 164.5,424.833 164.5,425.5C 168.452,435.548 165.118,441.548 154.5,443.5C 153.09,443.868 152.09,444.701 151.5,446C 146.167,446.667 140.833,446.667 135.5,446C 133.164,443.167 130.164,442 126.5,442.5C 123.414,437.988 121.081,432.988 119.5,427.5C 119.029,418.357 119.696,409.357 121.5,400.5C 125.785,396.415 130.785,393.249 136.5,391C 141.167,390.333 145.833,390.333 150.5,391C 152.368,393.789 155.034,395.122 158.5,395C 162.373,399.785 163.54,405.285 162,411.5C 160.731,412.905 160.231,414.571 160.5,416.5C 158.143,416.337 155.81,416.503 153.5,417C 155.569,417.324 155.902,418.158 154.5,419.5C 149.431,423.547 143.765,424.714 137.5,423C 135.813,424.913 135.313,427.08 136,429.5C 139.17,430.96 142.503,431.96 146,432.5C 152.04,429.876 157.873,427.21 163.5,424.5 Z M 141.5,405.5 C 143.167,405.5 144.833,405.5 146.5,405.5C 145.133,410.007 142.799,410.507 139.5,407C 140.416,406.722 141.082,406.222 141.5,405.5 Z"/></g>
<g><path style="opacity:1" fill="#567c46" d="M 163.5,424.5 C 157.873,427.21 152.04,429.876 146,432.5C 142.503,431.96 139.17,430.96 136,429.5C 135.313,427.08 135.813,424.913 137.5,423C 143.765,424.714 149.431,423.547 154.5,419.5C 155.902,418.158 155.569,417.324 153.5,417C 155.81,416.503 158.143,416.337 160.5,416.5C 160.231,414.571 160.731,412.905 162,411.5C 163.54,405.285 162.373,399.785 158.5,395C 155.034,395.122 152.368,393.789 150.5,391C 145.833,390.333 141.167,390.333 136.5,391C 130.785,393.249 125.785,396.415 121.5,400.5C 126.198,392.228 133.365,387.895 143,387.5C 155.972,388.536 163.472,395.37 165.5,408C 164.954,415.223 161.287,420.223 154.5,423C 148.726,425.058 143.06,425.892 137.5,425.5C 139.2,428.267 141.7,429.601 145,429.5C 149.774,429.488 153.94,427.988 157.5,425C 159.473,424.505 161.473,424.338 163.5,424.5 Z"/></g>
<g><path style="opacity:0.969" fill="#587c48" d="M 266.5,398.5 C 269.643,404.331 271.476,410.664 272,417.5C 272.667,427.167 272.667,436.833 272,446.5C 267.219,449.363 262.052,450.196 256.5,449C 255.5,448.167 254.5,447.333 253.5,446.5C 252.841,437.173 252.007,427.839 251,418.5C 249.486,412.442 246.153,411.108 241,414.5C 240.301,422.518 240.468,430.518 241.5,438.5C 241.432,441.438 240.766,444.105 239.5,446.5C 239.168,435.147 239.501,423.814 240.5,412.5C 245.263,408.118 249.263,408.784 252.5,414.5C 253.338,419.206 254.338,423.872 255.5,428.5C 253.85,434.33 254.183,439.997 256.5,445.5C 261.031,447.719 265.698,448.052 270.5,446.5C 270.667,435.828 270.5,425.161 270,414.5C 268.004,409.352 266.837,404.019 266.5,398.5 Z"/></g>
<g><path style="opacity:0.412" fill="#608155" d="M 119.5,427.5 C 121.081,432.988 123.414,437.988 126.5,442.5C 123.291,439.772 120.791,436.439 119,432.5C 117.57,427.255 116.57,421.922 116,416.5C 111.788,419.721 107.288,420.221 102.5,418C 101.748,417.329 101.414,416.496 101.5,415.5C 107.362,418.454 112.862,417.788 118,413.5C 118.174,418.351 118.674,423.018 119.5,427.5 Z"/></g>
<g><path style="opacity:0.992" fill="#67865a" d="M 220.5,393.5 C 220.499,410.568 220.665,427.568 221,444.5C 221.5,446.333 222.667,447.5 224.5,448C 228.152,448.499 231.818,448.665 235.5,448.5C 222.84,452.572 217.006,447.906 218,434.5C 215.313,441.764 210.146,446.097 202.5,447.5C 204.071,444.476 206.571,442.809 210,442.5C 210.343,439.807 211.676,437.807 214,436.5C 214.978,433.331 214.478,430.497 212.5,428C 209.223,428.201 205.889,428.368 202.5,428.5C 205.867,425.324 209.867,424.158 214.5,425C 216.041,426.579 217.208,428.413 218,430.5C 218.333,419.167 218.667,407.833 219,396.5C 219.232,395.263 219.732,394.263 220.5,393.5 Z"/></g>
<g><path style="opacity:0.004" fill="#fefffe" d="M 282.5,429.5 C 283.833,430.167 283.833,430.167 282.5,429.5 Z"/></g>
<g><path style="opacity:1" fill="#477a32" d="M 207.5,393.5 C 210.961,395.475 213.127,398.475 214,402.5C 216.343,411.976 213.177,418.81 204.5,423C 198.992,424.851 193.325,425.851 187.5,426C 188.551,427.385 189.884,428.385 191.5,429C 195.188,429.45 198.854,429.283 202.5,428.5C 205.889,428.368 209.223,428.201 212.5,428C 214.478,430.497 214.978,433.331 214,436.5C 211.676,437.807 210.343,439.807 210,442.5C 206.571,442.809 204.071,444.476 202.5,447.5C 186.239,452.036 174.906,446.37 168.5,430.5C 169.329,423.345 169.829,416.011 170,408.5C 171.867,406.192 172.867,403.525 173,400.5C 174.832,398.37 176.666,396.203 178.5,394C 187.942,389.651 197.609,389.484 207.5,393.5 Z M 191.5,405.5 C 196.943,405.201 197.61,406.535 193.5,409.5C 189.891,408.713 189.224,407.38 191.5,405.5 Z"/></g>
<g><path style="opacity:1" fill="#183b29" d="M 468.5,388.5 C 472.846,388.334 477.179,388.501 481.5,389C 486.85,389.017 489.517,391.684 489.5,397C 489.523,401.138 487.856,404.305 484.5,406.5C 481.466,404.898 478.799,405.231 476.5,407.5C 481.051,410.7 485.551,414.033 490,417.5C 495.42,432.239 490.92,442.739 476.5,449C 466.517,452.213 458.017,450.046 451,442.5C 449.875,437.601 450.709,433.101 453.5,429C 458.167,429.152 462.833,429.652 467.5,430.5C 474.506,431.539 475.839,429.539 471.5,424.5C 464.46,422.291 458.293,418.624 453,413.5C 450.006,408.072 450.339,402.739 454,397.5C 458.053,393.066 462.886,390.066 468.5,388.5 Z"/></g>
<g><path style="opacity:0.004" fill="#fefffe" d="M 94.5,437.5 C 95.8333,438.167 95.8333,438.167 94.5,437.5 Z"/></g>
<g><path style="opacity:0.961" fill="#284337" d="M 420.5,370.5 C 426.186,370.005 426.686,371.005 422,373.5C 421.683,371.699 421.016,371.366 420,372.5C 419.788,375.758 419.288,378.924 418.5,382C 419.293,383.085 419.96,384.252 420.5,385.5C 418.653,389.723 415.653,391.723 411.5,391.5C 410.276,393.828 410.276,396.161 411.5,398.5C 410.689,399.216 410.022,400.05 409.5,401C 410.786,402.649 412.453,403.815 414.5,404.5C 416.306,403.141 417.806,403.475 419,405.5C 419.676,419.514 419.509,433.514 418.5,447.5C 422.11,448.25 425.444,448.917 428.5,449.5C 429.969,445.959 432.303,444.959 435.5,446.5C 435.572,438.991 435.905,431.491 436.5,424C 436.631,419.363 435.964,414.863 434.5,410.5C 435.327,407.168 437.16,404.501 440,402.5C 442.059,402.446 444.226,402.613 446.5,403C 447.978,399.16 447.645,395.494 445.5,392C 445.645,391.228 445.978,390.561 446.5,390C 442.436,389.29 438.603,388.123 435,386.5C 435.681,382.778 436.514,379.111 437.5,375.5C 438.482,378.962 438.815,382.629 438.5,386.5C 447.175,385.501 451.509,389.501 451.5,398.5C 450.986,401.211 449.986,403.711 448.5,406C 445.183,406.498 441.85,406.665 438.5,406.5C 438.667,420.504 438.5,434.504 438,448.5C 431.283,451.008 424.616,451.008 418,448.5C 417.667,434.833 417.333,421.167 417,407.5C 413.943,406.549 410.777,406.216 407.5,406.5C 407.5,418.5 407.5,430.5 407.5,442.5C 405.804,426.609 404.637,410.609 404,394.5C 403.5,393.333 402.667,392.5 401.5,392C 398.318,391.593 395.151,391.093 392,390.5C 390.11,390.785 388.777,391.785 388,393.5C 387.329,392.748 386.496,392.414 385.5,392.5C 385.561,389.95 386.894,388.45 389.5,388C 395.521,386.892 401.188,387.726 406.5,390.5C 407.642,389.174 408.976,388.174 410.5,387.5C 412.833,387.5 415.167,387.5 417.5,387.5C 417.5,382.833 417.5,378.167 417.5,373.5C 417.5,371.5 418.5,370.5 420.5,370.5 Z"/></g>
<g><path style="opacity:0.004" fill="#fefffe" d="M 294.5,465.5 C 295.833,466.167 295.833,466.167 294.5,465.5 Z"/></g>
<g><path style="opacity:0.004" fill="#fefffe" d="M 165.5,466.5 C 166.833,467.167 166.833,467.167 165.5,466.5 Z"/></g>
<g><path style="opacity:0.004" fill="#fefffe" d="M 451.5,468.5 C 452.833,469.167 452.833,469.167 451.5,468.5 Z"/></g>
<g><path style="opacity:0.004" fill="#fefffe" d="M 412.5,471.5 C 413.833,472.167 413.833,472.167 412.5,471.5 Z"/></g>
<g><path style="opacity:0.004" fill="#fefffe" d="M 459.5,474.5 C 460.833,475.167 460.833,475.167 459.5,474.5 Z"/></g>
<g><path style="opacity:0.004" fill="#fefffe" d="M 219.5,477.5 C 220.833,478.167 220.833,478.167 219.5,477.5 Z"/></g>
<g><path style="opacity:0.004" fill="#fefffe" d="M 127.5,482.5 C 128.833,483.167 128.833,483.167 127.5,482.5 Z"/></g>
<g><path style="opacity:0.004" fill="#fefffe" d="M 475.5,483.5 C 476.833,484.167 476.833,484.167 475.5,483.5 Z"/></g>
<g><path style="opacity:0.004" fill="#fefffe" d="M 479.5,486.5 C 480.833,487.167 480.833,487.167 479.5,486.5 Z"/></g>
<g><path style="opacity:0.004" fill="#fefffe" d="M 322.5,490.5 C 323.833,491.167 323.833,491.167 322.5,490.5 Z"/></g>
<g><path style="opacity:0.004" fill="#fefffe" d="M 381.5,493.5 C 382.833,494.167 382.833,494.167 381.5,493.5 Z"/></g>
<g><path style="opacity:0.004" fill="#fefffe" d="M 190.5,496.5 C 191.833,497.167 191.833,497.167 190.5,496.5 Z"/></g>
<g><path style="opacity:0.004" fill="#fefffe" d="M 254.5,496.5 C 255.833,497.167 255.833,497.167 254.5,496.5 Z"/></g>
</svg>
